<?xml version="1.0" encoding="UTF-8"?>
<!DOCTYPE svg PUBLIC "-//W3C//DTD SVG 1.1//EN" "http://www.w3.org/Graphics/SVG/1.1/DTD/svg11.dtd">
<!-- Creator: CorelDRAW (Evaluation Version) -->
<svg xmlns="http://www.w3.org/2000/svg" xml:space="preserve" width="5.9268mm" height="5.9268mm" version="1.1" style="shape-rendering:geometricPrecision; text-rendering:geometricPrecision; image-rendering:optimizeQuality; fill-rule:evenodd; clip-rule:evenodd"
viewBox="0 0 65.85 65.85"
 xmlns:xlink="http://www.w3.org/1999/xlink"
 xmlns:xodm="http://www.corel.com/coreldraw/odm/2003">
 <defs>
  <style type="text/css">
   <![CDATA[
    .fil1 {fill:#1F57C3;fill-rule:nonzero}
    .fil0 {fill:#213479;fill-rule:nonzero}
   ]]>
  </style>
 </defs>
 <g id="Слой_x0020_1">
  <metadata id="CorelCorpID_0Corel-Layer"/>
  <g id="_105553191053248">
   <g>
    <path class="fil0" d="M32.93 64.33c8.67,0 16.53,-3.52 22.21,-9.2 5.68,-5.68 9.2,-13.53 9.2,-22.21 0,-8.67 -3.52,-16.53 -9.2,-22.21 -5.68,-5.68 -13.53,-9.2 -22.21,-9.2 -8.67,0 -16.53,3.52 -22.21,9.2 -5.68,5.68 -9.2,13.53 -9.2,22.21 0,8.67 3.52,16.53 9.2,22.21 5.68,5.68 13.53,9.2 22.21,9.2zm23.28 -8.12c-5.96,5.96 -14.19,9.64 -23.28,9.64 -9.09,0 -17.32,-3.69 -23.28,-9.64 -5.96,-5.96 -9.64,-14.19 -9.64,-23.28 0,-9.09 3.69,-17.32 9.64,-23.28 5.96,-5.96 14.19,-9.64 23.28,-9.64 9.09,0 17.32,3.69 23.28,9.64 5.96,5.96 9.64,14.19 9.64,23.28 0,9.09 -3.69,17.32 -9.64,23.28z"/>
    <path class="fil0" d="M23.98 13.27l18.24 0c0.73,0 1.39,0.3 1.88,0.78l0 0c0.48,0.48 0.78,1.15 0.78,1.87l0 33.28c0,0.73 -0.3,1.39 -0.78,1.88l-0 0c-0.48,0.48 -1.15,0.78 -1.87,0.78l-18.24 0c-0.73,0 -1.39,-0.3 -1.88,-0.78l-0 -0c-0.48,-0.48 -0.78,-1.15 -0.78,-1.87l0 -33.28c0,-0.73 0.3,-1.39 0.78,-1.88l0 -0c0.48,-0.48 1.15,-0.78 1.87,-0.78zm18.24 1.48l-18.24 0c-0.32,0 -0.62,0.13 -0.83,0.34l-0 0c-0.21,0.21 -0.34,0.51 -0.34,0.83l0 33.28c0,0.32 0.13,0.62 0.34,0.83l0 0c0.21,0.21 0.51,0.34 0.83,0.34l18.24 0c0.32,0 0.62,-0.13 0.83,-0.34l0 -0c0.21,-0.21 0.34,-0.5 0.34,-0.83l0 -33.28c0,-0.32 -0.13,-0.62 -0.34,-0.83l-0 -0c-0.21,-0.21 -0.51,-0.34 -0.83,-0.34z"/>
   </g>
   <g>
    <path class="fil1" d="M41.32 40.72c0,0.4 -0.32,0.72 -0.72,0.72 -0.4,0 -0.72,-0.32 -0.72,-0.72l0 -17.01 -13.59 0 0 19.09 12.25 0c0.4,0 0.72,0.32 0.72,0.72 0,0.4 -0.32,0.72 -0.72,0.72l-12.97 0c-0.4,0 -0.72,-0.32 -0.72,-0.72l0 -20.53c0,-0.4 0.32,-0.72 0.72,-0.72l15.02 0c0.4,0 0.72,0.32 0.72,0.72l0 17.73z"/>
    <path class="fil1" d="M28.58 20.02c-0.41,0 -0.74,-0.33 -0.74,-0.74 -0,-0.41 0.33,-0.74 0.74,-0.74l9.04 -0.05c0.41,-0 0.74,0.33 0.74,0.74 0,0.41 -0.33,0.74 -0.74,0.74l-9.04 0.05z"/>
    <g>
     <path class="fil1" d="M28.25 28.88c-0.27,-0.31 -0.23,-0.78 0.08,-1.04 0.31,-0.27 0.78,-0.23 1.04,0.08l2.66 3.1c0.27,0.31 0.23,0.78 -0.08,1.04 -0.31,0.27 -0.78,0.23 -1.04,-0.08l-2.66 -3.1z"/>
     <path class="fil1" d="M35.37 31.99c-0.26,0.32 -0.73,0.36 -1.04,0.1 -0.32,-0.26 -0.36,-0.73 -0.1,-1.04l2.59 -3.16c0.26,-0.32 0.73,-0.36 1.04,-0.1 0.32,0.26 0.36,0.73 0.1,1.04l-2.59 3.16z"/>
    </g>
    <path class="fil1" d="M28.18 36.15c-0.34,-0.23 -0.42,-0.69 -0.19,-1.03 0.23,-0.34 0.69,-0.42 1.03,-0.19 1.92,1.33 3.06,1.97 4.1,1.95 1.04,-0.03 2.16,-0.74 4.04,-2.13 0.33,-0.24 0.79,-0.17 1.04,0.15 0.24,0.33 0.17,0.79 -0.15,1.04 -2.12,1.57 -3.44,2.38 -4.88,2.42l-0 0c-1.44,0.04 -2.79,-0.7 -4.98,-2.21z"/>
   </g>
  </g>
 </g>
</svg>
