<?xml version="1.0" encoding="UTF-8"?>
<!DOCTYPE svg PUBLIC "-//W3C//DTD SVG 1.1//EN" "http://www.w3.org/Graphics/SVG/1.1/DTD/svg11.dtd">
<!-- Creator: CorelDRAW (Evaluation Version) -->
<svg xmlns="http://www.w3.org/2000/svg" xml:space="preserve" width="5.9266mm" height="5.9266mm" version="1.1" style="shape-rendering:geometricPrecision; text-rendering:geometricPrecision; image-rendering:optimizeQuality; fill-rule:evenodd; clip-rule:evenodd"
viewBox="0 0 53.94 53.94"
 xmlns:xlink="http://www.w3.org/1999/xlink"
 xmlns:xodm="http://www.corel.com/coreldraw/odm/2003">
 <defs>
  <style type="text/css">
   <![CDATA[
    .fil0 {fill:#1F57C3;fill-rule:nonzero}
    .fil1 {fill:#213479;fill-rule:nonzero}
   ]]>
  </style>
 </defs>
 <g id="Слой_x0020_1">
  <metadata id="CorelCorpID_0Corel-Layer"/>
  <g id="_105553191042432">
   <g>
    <path class="fil0" d="M19.1 26.36c-0.11,0 -0.22,-0.04 -0.31,-0.13 -0.17,-0.17 -0.17,-0.45 0,-0.62l14.75 -14.75c0.17,-0.17 0.45,-0.17 0.62,0 0.17,0.17 0.17,0.45 0,0.62l-14.76 14.75c-0.08,0.09 -0.2,0.13 -0.31,0.13z"/>
    <path class="fil0" d="M12.51 40.99c-0.61,0 -0.93,-0.18 -1.13,-0.38 -0.52,-0.52 -0.92,-1.78 1.58,-6.82 1.32,-2.65 2.84,-5.14 2.86,-5.17 0.02,-0.03 0.04,-0.06 0.06,-0.08l3.4 -3.4c0.17,-0.17 0.45,-0.17 0.62,0 0.17,0.17 0.17,0.45 0,0.61l-3.36 3.36c-0.21,0.34 -1.59,2.64 -2.79,5.06 -2.38,4.8 -1.87,5.68 -1.74,5.81 0.13,0.13 1,0.64 5.81,-1.74 2.43,-1.2 4.72,-2.58 5.06,-2.79l1.8 -1.8c0.17,-0.17 0.45,-0.17 0.62,0 0.17,0.17 0.17,0.45 0,0.62l-1.83 1.83c-0.02,0.03 -0.05,0.05 -0.08,0.06 -0.02,0.02 -2.52,1.54 -5.17,2.86 -3.06,1.52 -4.73,1.96 -5.68,1.96z"/>
    <path class="fil0" d="M25.28 34.08c-0.11,0 -0.22,-0.04 -0.31,-0.13 -0.17,-0.17 -0.17,-0.45 0,-0.62l15.53 -15.53c0.17,-0.17 0.45,-0.17 0.62,0 0.17,0.17 0.17,0.45 0,0.62l-15.53 15.53c-0.09,0.09 -0.2,0.13 -0.31,0.13z"/>
    <path class="fil0" d="M16.08 39.42c-0.18,0 -0.35,-0.12 -0.41,-0.3l0 0c-0,-0.01 -0.31,-0.9 -0.99,-1.59 -0.7,-0.69 -1.64,-1.04 -1.65,-1.05 -0.23,-0.08 -0.34,-0.33 -0.26,-0.56 0.08,-0.23 0.33,-0.34 0.56,-0.26 0.05,0.02 1.14,0.42 1.97,1.25 0.84,0.83 1.19,1.89 1.21,1.93 0.08,0.23 -0.05,0.48 -0.28,0.55 -0.04,0.02 -0.09,0.02 -0.14,0.02z"/>
    <path class="fil0" d="M22.95 35.96c-0.15,0 -0.29,-0.07 -0.37,-0.21 -0.01,-0.02 -1.09,-1.74 -2.71,-3.35 -1.62,-1.62 -3.45,-2.81 -3.46,-2.82 -0.2,-0.13 -0.26,-0.4 -0.13,-0.6 0.13,-0.2 0.4,-0.26 0.6,-0.13 0.08,0.05 1.92,1.25 3.61,2.94 1.69,1.69 2.78,3.43 2.83,3.51 0.13,0.2 0.06,0.47 -0.14,0.6 -0.07,0.04 -0.15,0.07 -0.23,0.07z"/>
    <path class="fil0" d="M40.81 18.56c-0.14,0 -0.28,-0.07 -0.36,-0.19 -0.01,-0.02 -1.41,-2.06 -3.09,-3.74 -1.69,-1.69 -3.72,-3.08 -3.74,-3.1 -0.2,-0.14 -0.25,-0.41 -0.11,-0.6 0.14,-0.2 0.41,-0.25 0.61,-0.11 0.09,0.06 2.12,1.45 3.87,3.2 1.75,1.75 3.14,3.78 3.2,3.87 0.14,0.2 0.09,0.47 -0.11,0.61 -0.08,0.05 -0.16,0.08 -0.25,0.08z"/>
    <path class="fil0" d="M38.24 21.12c-0.14,0 -0.28,-0.07 -0.36,-0.19 -0.01,-0.02 -1.41,-2.05 -3.1,-3.74 -1.69,-1.69 -3.72,-3.08 -3.74,-3.1 -0.2,-0.14 -0.25,-0.41 -0.11,-0.61 0.14,-0.2 0.41,-0.25 0.6,-0.12 0.09,0.06 2.12,1.45 3.87,3.2 1.75,1.75 3.14,3.78 3.2,3.87 0.13,0.2 0.08,0.47 -0.12,0.61 -0.07,0.05 -0.16,0.07 -0.25,0.07z"/>
    <path class="fil0" d="M40.6 17.7c-0.11,0 -0.22,-0.04 -0.31,-0.13 -0.17,-0.17 -0.17,-0.45 0,-0.62 0.92,-0.92 1.31,-1.79 1.21,-2.66 -0.1,-0.79 -0.6,-1.62 -1.54,-2.56 -1.92,-1.92 -3.36,-1.99 -5.12,-0.23 -0.17,0.17 -0.45,0.17 -0.62,0 -0.17,-0.17 -0.17,-0.45 0,-0.62 2.75,-2.75 4.94,-1.19 6.36,0.22 1.08,1.08 1.66,2.09 1.78,3.07 0.14,1.16 -0.34,2.27 -1.46,3.38 -0.08,0.09 -0.2,0.13 -0.31,0.13z"/>
    <path class="fil0" d="M22.94 31.75c-0.11,0 -0.22,-0.04 -0.31,-0.13 -0.17,-0.17 -0.17,-0.45 0,-0.62l11.3 -11.3c0.17,-0.17 0.45,-0.17 0.62,0 0.17,0.17 0.17,0.45 0,0.62l-11.29 11.29c-0.09,0.09 -0.2,0.13 -0.31,0.13z"/>
    <path class="fil0" d="M20.44 29.24c-0.11,0 -0.22,-0.04 -0.31,-0.13 -0.17,-0.17 -0.17,-0.45 0,-0.62l11.29 -11.29c0.17,-0.17 0.45,-0.17 0.62,0 0.17,0.17 0.17,0.45 0,0.62l-11.29 11.29c-0.09,0.09 -0.2,0.13 -0.31,0.13z"/>
   </g>
   <path class="fil1" d="M26.97 52.7c7.1,0 13.54,-2.88 18.19,-7.53 4.66,-4.66 7.53,-11.09 7.53,-18.19 0,-7.1 -2.88,-13.54 -7.53,-18.19 -4.66,-4.66 -11.09,-7.53 -18.19,-7.53 -7.1,0 -13.54,2.88 -18.19,7.53 -4.66,4.66 -7.53,11.09 -7.53,18.19 0,7.1 2.88,13.54 7.53,18.19 4.66,4.66 11.09,7.53 18.19,7.53zm19.07 -6.65c-4.88,4.88 -11.62,7.9 -19.07,7.9 -7.45,0 -14.19,-3.02 -19.07,-7.9 -4.88,-4.88 -7.9,-11.62 -7.9,-19.07 0,-7.45 3.02,-14.19 7.9,-19.07 4.88,-4.88 11.62,-7.9 19.07,-7.9 7.45,0 14.19,3.02 19.07,7.9 4.88,4.88 7.9,11.62 7.9,19.07 0,7.45 -3.02,14.19 -7.9,19.07z"/>
  </g>
 </g>
</svg>
