<?xml version="1.0" encoding="UTF-8"?>
<!DOCTYPE svg PUBLIC "-//W3C//DTD SVG 1.1//EN" "http://www.w3.org/Graphics/SVG/1.1/DTD/svg11.dtd">
<!-- Creator: CorelDRAW (Evaluation Version) -->
<svg xmlns="http://www.w3.org/2000/svg" xml:space="preserve" width="5.9266mm" height="5.9266mm" version="1.1" style="shape-rendering:geometricPrecision; text-rendering:geometricPrecision; image-rendering:optimizeQuality; fill-rule:evenodd; clip-rule:evenodd"
viewBox="0 0 592.68 592.68"
 xmlns:xlink="http://www.w3.org/1999/xlink"
 xmlns:xodm="http://www.corel.com/coreldraw/odm/2003">
 <defs>
  <style type="text/css">
   <![CDATA[
    .fil1 {fill:#1F57C3}
    .fil0 {fill:#213479;fill-rule:nonzero}
   ]]>
  </style>
 </defs>
 <g id="Слой_x0020_1">
  <metadata id="CorelCorpID_0Corel-Layer"/>
  <g id="_105553191755712">
   <path class="fil0" d="M296.34 579.01c78.06,0 148.73,-31.64 199.88,-82.79 51.15,-51.15 82.79,-121.81 82.79,-199.88 0,-78.06 -31.64,-148.73 -82.79,-199.88 -51.15,-51.15 -121.81,-82.79 -199.88,-82.79 -78.06,0 -148.73,31.64 -199.88,82.79 -51.15,51.15 -82.79,121.81 -82.79,199.88 0,78.06 31.64,148.73 82.79,199.88 51.15,51.15 121.81,82.79 199.88,82.79zm209.55 -73.12c-53.62,53.62 -127.71,86.79 -209.55,86.79 -81.83,0 -155.93,-33.17 -209.55,-86.79 -53.62,-53.62 -86.79,-127.71 -86.79,-209.55 0,-81.83 33.17,-155.93 86.79,-209.55 53.62,-53.62 127.71,-86.79 209.55,-86.79 81.83,0 155.93,33.17 209.55,86.79 53.62,53.62 86.79,127.71 86.79,209.55 0,81.83 -33.17,155.93 -86.79,209.55z"/>
   <g>
    <g>
     <path class="fil1" d="M416.66 455.52l-41.15 0 0 -208.2 42.97 0 0 206.39c0,1.39 -0.42,1.81 -1.82,1.81zm-55.68 -211.23l0 213.65c0,6.99 6.13,12.11 13.32,12.11l46 0c6.7,0 12.71,-6 12.71,-12.71l0 -212.44c0,-7.22 -6.39,-12.71 -13.93,-12.71l-45.39 0c-6.48,0 -12.71,5.55 -12.71,12.1z"/>
     <path class="fil1" d="M337.38 129.89c0,2.97 1.48,4.96 3.47,6.22 2.05,1.31 5.16,1.58 7.54,2.14l39.59 8.83c2.48,0.56 5.78,1.52 8.11,1.58 -0.93,0.8 -0.25,0.24 -1.42,1 -15.29,10.05 -42.81,25.97 -58.47,35.34 -10.08,6.03 -19.97,12.08 -30.18,18.24l-135.49 81.78c-7.53,4.49 -12.9,6.09 -12.9,12.52 0,3.51 3.13,6.66 7.86,6.66 2.36,0 5.9,-2.62 7.76,-3.75 2.68,-1.62 4.89,-2.92 7.49,-4.61l44.18 -26.63c9.96,-6.01 19.5,-11.8 29.43,-17.78 5.06,-3.05 9.7,-5.8 14.75,-8.85l118.55 -71.5c5,-2.97 9.96,-6.39 15.09,-9.11 -1.05,4.54 -3.3,10.23 -4.76,14.6l-9.99 29.96c-3.73,11.97 10.36,15.06 13.64,5.77l15.56 -47.38c3.46,-10.38 11.05,-24.03 0.53,-26.4 -3.87,-0.88 -6.81,-1.32 -10.59,-2.12l-62.49 -13.77c-3.92,0 -7.26,3.34 -7.26,7.26z"/>
     <path class="fil1" d="M259.31 312.08l0 44.18c1.98,0 9.06,2.93 12.95,0.24 0.46,-0.32 0.28,-0.14 0.66,-0.54 1.13,-1.17 0.91,0.82 0.91,-1.52l0 -39.94 42.97 0 0 141.01 -42.97 0 0 -68.39c-2.22,-0.18 -5.18,-3.99 -14.52,-1.81 0,11.77 -0.69,64.17 0,73.22 0.5,6.52 6.17,11.51 13.31,11.51l46 0c6.71,0 12.71,-5.88 12.71,-12.71l0 -144.65c0,-7.17 -6.12,-12.71 -13.92,-12.71l-44.18 0c-7.49,0 -13.92,4.76 -13.92,12.11z"/>
     <path class="fil1" d="M171.55 377.44l42.97 0 0 78.07 -42.97 0 0 -78.07zm-14.53 -3.03l0 83.52c0,6.93 6.22,12.11 13.32,12.11l45.99 0c6.71,0 12.71,-6 12.71,-12.71l0 -81.1c0,-4.04 -1.11,-6.76 -3.15,-8.95 -1.57,-1.69 -4.79,-4.37 -7.74,-4.37l-49.63 0c-5.98,0 -11.5,5.52 -11.5,11.5z"/>
    </g>
   </g>
  </g>
 </g>
</svg>
