<?xml version="1.0" encoding="UTF-8"?>
<!DOCTYPE svg PUBLIC "-//W3C//DTD SVG 1.1//EN" "http://www.w3.org/Graphics/SVG/1.1/DTD/svg11.dtd">
<!-- Creator: CorelDRAW (Evaluation Version) -->
<svg xmlns="http://www.w3.org/2000/svg" xml:space="preserve" width="5.9266mm" height="5.9266mm" version="1.1" style="shape-rendering:geometricPrecision; text-rendering:geometricPrecision; image-rendering:optimizeQuality; fill-rule:evenodd; clip-rule:evenodd"
viewBox="0 0 65.84 65.84"
 xmlns:xlink="http://www.w3.org/1999/xlink"
 xmlns:xodm="http://www.corel.com/coreldraw/odm/2003">
 <defs>
  <style type="text/css">
   <![CDATA[
    .fil1 {fill:#1F57C3;fill-rule:nonzero}
    .fil0 {fill:#213479;fill-rule:nonzero}
   ]]>
  </style>
 </defs>
 <g id="Слой_x0020_1">
  <metadata id="CorelCorpID_0Corel-Layer"/>
  <g id="_105553190985856">
   <path class="fil0" d="M32.92 64.32c8.67,0 16.52,-3.52 22.21,-9.2 5.68,-5.68 9.2,-13.53 9.2,-22.21 0,-8.67 -3.52,-16.52 -9.2,-22.21 -5.68,-5.68 -13.53,-9.2 -22.21,-9.2 -8.67,0 -16.52,3.52 -22.21,9.2 -5.68,5.68 -9.2,13.53 -9.2,22.21 0,8.67 3.52,16.52 9.2,22.21 5.68,5.68 13.53,9.2 22.21,9.2zm23.28 -8.12c-5.96,5.96 -14.19,9.64 -23.28,9.64 -9.09,0 -17.32,-3.69 -23.28,-9.64 -5.96,-5.96 -9.64,-14.19 -9.64,-23.28 0,-9.09 3.69,-17.32 9.64,-23.28 5.96,-5.96 14.19,-9.64 23.28,-9.64 9.09,0 17.32,3.69 23.28,9.64 5.96,5.96 9.64,14.19 9.64,23.28 0,9.09 -3.69,17.32 -9.64,23.28z"/>
   <path class="fil1" d="M14.43 21.24c0.07,-0.04 0.15,-0.07 0.23,-0.08 3.12,-0.61 5.45,-1.08 7.78,-1.55 7,-1.41 14.04,-2.83 20.95,-4 0.35,-0.06 0.62,-0.11 1.06,-0.18 0.37,-0.06 0.69,-0.11 1.05,-0.16 0.2,-0.03 0.38,0.02 0.54,0.12l0 -0c-0,-0 -0,-0 0,-0 0.37,0.14 0.93,0.35 0.97,1.02 0.07,1.14 0.01,3.68 -0.01,4.75l3.97 0c0.38,0 0.72,0.15 0.97,0.41l0 -0c0.25,0.25 0.4,0.59 0.4,0.97l0 24.16c0,0.38 -0.16,0.72 -0.41,0.97 -0.25,0.25 -0.59,0.4 -0.97,0.4l-36.03 0c-0.38,0 -0.72,-0.15 -0.97,-0.4 -0.02,-0.02 -0.04,-0.04 -0.06,-0.06 -0.22,-0.24 -0.35,-0.56 -0.35,-0.91l0 -24.16c0,-0.38 0.15,-0.72 0.4,-0.97 0.13,-0.13 0.29,-0.24 0.46,-0.31zm8.31 -0.13l-0.17 0.03 22.89 0c0.02,-0.93 0.07,-3.1 0.03,-4.33 -0.33,0.05 -0.58,0.09 -0.8,0.12l-1.05 0.18c-6.99,1.19 -13.96,2.59 -20.9,3.99zm23.3 -5.72l0.01 0.01 -0.01 -0.01 -0 0zm4.77 7.3l-35.7 0 0 11.92c2.66,-1.72 5.27,-3.3 8.03,-4.57 3.03,-1.39 6.21,-2.4 9.79,-2.79 2.2,-0.24 3.07,0.23 3.16,1.07 0.08,0.75 -0.78,1.63 -1.78,2.45 0.21,-0.03 0.41,-0.06 0.61,-0.08 3.1,-0.31 5.83,-0.1 8.49,0.47 2.44,0.53 4.83,1.38 7.4,2.44l0 -10.92zm0 23.83l0 -11.25c-2.71,-1.14 -5.18,-2.05 -7.72,-2.6 -2.51,-0.55 -5.09,-0.74 -8.01,-0.45l-0 0c-0.55,0.05 -1.18,0.17 -1.79,0.29 -0.67,0.13 -1.31,0.25 -1.86,0.29l0 -0c-0.24,0.02 -0.47,-0.08 -0.64,-0.27 -0.27,-0.32 -0.23,-0.81 0.09,-1.08 0.25,-0.21 0.61,-0.48 1.03,-0.78l0.05 -0.04c1.11,-0.81 2.63,-1.91 2.6,-2.14 -0.01,-0.08 -0.38,0.18 -1.47,0.29 -3.4,0.37 -6.43,1.33 -9.32,2.66 -2.9,1.34 -5.68,3.06 -8.55,4.93 -0.04,0.03 -0.08,0.05 -0.12,0.07l0 10.09 35.7 0z"/>
  </g>
 </g>
</svg>
