<?xml version="1.0" encoding="UTF-8"?>
<!DOCTYPE svg PUBLIC "-//W3C//DTD SVG 1.1//EN" "http://www.w3.org/Graphics/SVG/1.1/DTD/svg11.dtd">
<!-- Creator: CorelDRAW (Evaluation Version) -->
<svg xmlns="http://www.w3.org/2000/svg" xml:space="preserve" width="5.9266mm" height="5.9266mm" version="1.1" style="shape-rendering:geometricPrecision; text-rendering:geometricPrecision; image-rendering:optimizeQuality; fill-rule:evenodd; clip-rule:evenodd"
viewBox="0 0 592.68 592.68"
 xmlns:xlink="http://www.w3.org/1999/xlink"
 xmlns:xodm="http://www.corel.com/coreldraw/odm/2003">
 <defs>
  <style type="text/css">
   <![CDATA[
    .fil0 {fill:#1F57C3;fill-rule:nonzero}
    .fil1 {fill:#213479;fill-rule:nonzero}
   ]]>
  </style>
 </defs>
 <g id="Слой_x0020_1">
  <metadata id="CorelCorpID_0Corel-Layer"/>
  <g id="_105553188349056">
   <g>
    <path class="fil0" d="M301.42 205c2.21,0.09 5.04,0.14 8.23,0.14 24.2,0 41.73,-3.21 48.1,-8.84 6.01,-5.28 9.32,-12.24 9.29,-19.6 0,-7.38 -3.28,-14.33 -9.29,-19.61 -6.19,-5.45 -14.49,-8.48 -23.34,-8.48 -8.84,0 -17.15,3.03 -23.34,8.48 -8.41,7.42 -10.34,31.44 -9.65,47.91zm8.23 11.78l0 0c-8.15,0 -13.85,-0.37 -14.09,-0.37 -2.86,-0.19 -5.16,-2.47 -5.42,-5.33 -0.39,-4.87 -3.52,-47.97 13.22,-62.72 8.33,-7.34 19.37,-11.39 31.05,-11.39 11.69,0 22.72,4.05 31.05,11.39 8.52,7.53 13.22,17.59 13.22,28.34 0.03,10.75 -4.68,20.81 -13.22,28.33 -8.85,7.8 -27.63,11.75 -55.81,11.75z"/>
    <path class="fil0" d="M252.43 139.73c-10.19,0 -19.73,3.47 -26.88,9.78 -6.95,6.12 -10.78,14.17 -10.78,22.71 0,8.54 3.83,16.62 10.78,22.74 7.33,6.48 27.33,10.17 54.87,10.17 3.95,0 7.39,-0.06 9.98,-0.16 0.69,-15.8 -0.31,-45.97 -11.08,-55.46 -7.15,-6.31 -16.69,-9.78 -26.89,-9.78zm27.99 77.04c-21.78,0 -50.3,-2.26 -62.57,-13.08 -9.5,-8.35 -14.7,-19.53 -14.7,-31.47 0,-11.91 5.23,-23.08 14.7,-31.44 9.27,-8.17 21.55,-12.68 34.58,-12.68 13.01,0 25.31,4.51 34.59,12.68 18.63,16.41 15.13,64.79 14.66,70.24 -0.23,2.89 -2.53,5.15 -5.41,5.33 -0.26,0.03 -6.66,0.42 -15.85,0.42z"/>
    <path class="fil0" d="M247.5 328.11c-2.3,0 -4.47,-1.38 -5.4,-3.66 -0.86,-2.12 -20.76,-52.4 -0.28,-87.91 10.11,-17.48 28.03,-28.14 53.32,-31.7 1.03,-0.14 2.05,-0.02 3,0.37 2.7,1.09 65.93,27.59 65.27,82.89 -0.05,3.21 -2.6,5.72 -5.88,5.74 -3.24,-0.02 -5.81,-2.67 -5.76,-5.88 0.51,-43.32 -47.74,-67.32 -56.63,-71.36 -20.69,3.23 -35.21,11.89 -43.21,25.74 -17.67,30.55 0.79,77.29 0.97,77.76 1.19,2.98 -0.23,6.38 -3.21,7.56 -0.73,0.31 -1.47,0.45 -2.19,0.45z"/>
    <path class="fil0" d="M458.57 284.56l-268.61 0c-3.21,0 -5.81,-2.61 -5.81,-5.82 0,-3.2 2.6,-5.82 5.81,-5.82l262.79 0 0 -56.56 -313.7 0 0 56.56 26.84 0c3.22,0 5.83,2.62 5.83,5.82 0,3.21 -2.61,5.82 -5.83,5.82l-32.67 0c-3.21,0 -5.81,-2.61 -5.81,-5.82l0 -68.19c0,-3.21 2.6,-5.83 5.81,-5.83l325.35 0c3.21,0 5.81,2.62 5.81,5.83l0 68.19c0,3.21 -2.6,5.82 -5.81,5.82z"/>
    <path class="fil0" d="M444.51 475.51l-297.23 0c-3.21,0 -5.82,-2.6 -5.82,-5.81l0 -190.96c0,-3.2 2.61,-5.82 5.82,-5.82 3.21,0 5.81,2.62 5.81,5.82l0 185.14 285.6 0 0 -185.14c0,-3.2 2.61,-5.82 5.82,-5.82 3.21,0 5.83,2.62 5.83,5.82l0 190.96c0,3.21 -2.62,5.81 -5.83,5.81z"/>
    <path class="fil0" d="M296.35 475.51c-3.21,0 -5.81,-2.6 -5.81,-5.81l0 -258.73c0,-3.21 2.6,-5.83 5.81,-5.83 3.22,0 5.83,2.62 5.83,5.83l0 258.73c0,3.21 -2.61,5.81 -5.83,5.81z"/>
   </g>
   <path class="fil1" d="M296.34 579.01c78.06,0 148.73,-31.64 199.88,-82.79 51.15,-51.15 82.79,-121.81 82.79,-199.88 0,-78.06 -31.64,-148.73 -82.79,-199.88 -51.15,-51.15 -121.81,-82.79 -199.88,-82.79 -78.06,0 -148.73,31.64 -199.88,82.79 -51.15,51.15 -82.79,121.81 -82.79,199.88 0,78.06 31.64,148.73 82.79,199.88 51.15,51.15 121.81,82.79 199.88,82.79zm209.55 -73.12c-53.62,53.62 -127.71,86.79 -209.55,86.79 -81.83,0 -155.93,-33.17 -209.55,-86.79 -53.62,-53.62 -86.79,-127.71 -86.79,-209.55 0,-81.83 33.17,-155.93 86.79,-209.55 53.62,-53.62 127.71,-86.79 209.55,-86.79 81.83,0 155.93,33.17 209.55,86.79 53.62,53.62 86.79,127.71 86.79,209.55 0,81.83 -33.17,155.93 -86.79,209.55z"/>
  </g>
 </g>
</svg>
