<?xml version="1.0" encoding="UTF-8"?>
<!DOCTYPE svg PUBLIC "-//W3C//DTD SVG 1.1//EN" "http://www.w3.org/Graphics/SVG/1.1/DTD/svg11.dtd">
<!-- Creator: CorelDRAW (Evaluation Version) -->
<svg xmlns="http://www.w3.org/2000/svg" xml:space="preserve" width="5.9266mm" height="5.9266mm" version="1.1" style="shape-rendering:geometricPrecision; text-rendering:geometricPrecision; image-rendering:optimizeQuality; fill-rule:evenodd; clip-rule:evenodd"
viewBox="0 0 53.88 53.88"
 xmlns:xlink="http://www.w3.org/1999/xlink"
 xmlns:xodm="http://www.corel.com/coreldraw/odm/2003">
 <defs>
  <style type="text/css">
   <![CDATA[
    .fil1 {fill:#1F57C3}
    .fil0 {fill:#213479;fill-rule:nonzero}
   ]]>
  </style>
 </defs>
 <g id="Слой_x0020_1">
  <metadata id="CorelCorpID_0Corel-Layer"/>
  <g id="_105553127690592">
   <path class="fil0" d="M26.94 52.64c7.1,0 13.52,-2.88 18.17,-7.53 4.65,-4.65 7.53,-11.07 7.53,-18.17 0,-7.1 -2.88,-13.52 -7.53,-18.17 -4.65,-4.65 -11.07,-7.53 -18.17,-7.53 -7.1,0 -13.52,2.88 -18.17,7.53 -4.65,4.65 -7.53,11.07 -7.53,18.17 0,7.1 2.88,13.52 7.53,18.17 4.65,4.65 11.07,7.53 18.17,7.53zm19.05 -6.65c-4.87,4.87 -11.61,7.89 -19.05,7.89 -7.44,0 -14.17,-3.02 -19.05,-7.89 -4.87,-4.87 -7.89,-11.61 -7.89,-19.05 0,-7.44 3.02,-14.17 7.89,-19.05 4.87,-4.87 11.61,-7.89 19.05,-7.89 7.44,0 14.17,3.02 19.05,7.89 4.87,4.87 7.89,11.61 7.89,19.05 0,7.44 -3.02,14.17 -7.89,19.05z"/>
   <g>
    <path class="fil1" d="M33.62 33.68c0.03,-0.06 0.06,-0.11 0.11,-0.16 0.01,-0.01 0.02,-0.02 0.03,-0.03 -0.04,0.04 -0.09,0.14 -0.14,0.19zm0.11 0.64c-0.11,-0.11 -0.22,-0.22 -0.33,-0.33 0.03,-0.04 0.06,-0.07 0.09,-0.1 0.02,-0.02 0.03,-0.05 0.05,-0.07 0.05,-0.05 0.04,-0.1 0.08,-0.14 -0.1,0.21 -0.06,0.47 0.11,0.64zm0.36 0.36c-0.12,-0.12 -0.24,-0.24 -0.36,-0.36 0.12,0.12 0.24,0.24 0.36,0.36zm0.35 -1.24c-0.21,-0.14 -0.49,-0.12 -0.68,0.04 0.04,-0.04 0.12,-0.07 0.17,-0.12 0.04,-0.03 0.09,-0.04 0.15,-0.08 0.04,-0.02 0.07,-0.06 0.11,-0.09 0.08,0.08 0.17,0.16 0.25,0.25zm0.45 0.45c-0.15,-0.15 -0.3,-0.3 -0.45,-0.45 0.03,0.02 0.06,0.04 0.09,0.07 0.12,0.12 0.25,0.25 0.36,0.38zm-16.99 -20.39c5.03,-3.14 11.51,-2.44 15.76,1.71 2.45,2.38 3.83,5.58 3.87,9 0.04,3.41 -1.25,6.64 -3.65,9.1 -4.95,5.06 -13.09,5.15 -18.16,0.22 -4.41,-4.29 -5.14,-11.11 -1.75,-16.22 0.17,-0.26 0.1,-0.61 -0.16,-0.78 -0.26,-0.18 -0.61,-0.11 -0.78,0.16 -3.7,5.56 -2.89,12.99 1.9,17.65 2.71,2.64 6.24,3.96 9.76,3.95 3.37,0 6.74,-1.21 9.39,-3.61 2.26,2.26 4.53,4.52 6.8,6.78 0.12,0.12 0.25,0.25 0.37,0.37 0.22,0.22 0.58,0.22 0.8,-0 0.22,-0.22 0.22,-0.58 0,-0.8 -0.12,-0.12 -0.24,-0.24 -0.36,-0.36 -2.27,-2.26 -4.53,-4.52 -6.79,-6.78 2.48,-2.64 3.82,-6.06 3.77,-9.69 -0.05,-3.72 -1.54,-7.21 -4.22,-9.8 -4.63,-4.49 -11.68,-5.26 -17.15,-1.85 -0.26,0.17 -0.35,0.52 -0.18,0.78 0.16,0.26 0.52,0.35 0.78,0.18z"/>
    <path class="fil1" d="M28.55 24.36c0,-2.11 -1.73,-3.84 -3.85,-3.84 -2.12,0 -3.85,1.72 -3.85,3.84 0,2.12 1.73,3.84 3.85,3.84 2.12,0 3.85,-1.72 3.85,-3.84zm-3.85 -2.93c1.62,0 2.94,1.32 2.94,2.93 0,1.62 -1.32,2.93 -2.94,2.93 -1.62,-0 -2.94,-1.32 -2.94,-2.93 0,-1.61 1.32,-2.93 2.94,-2.93z"/>
    <path class="fil1" d="M24.81 19.3c4.41,0.08 8.12,4.25 9.13,5.5 -1.08,1.11 -4.94,4.72 -9.34,4.64 -4.4,-0.09 -8.11,-3.85 -9.15,-5.01 1.06,-1.22 4.94,-5.23 9.35,-5.13zm-0.04 11.22c5.6,0 10.11,-5.12 10.3,-5.34 0.17,-0.18 0.18,-0.47 0.03,-0.67 -0.18,-0.25 -4.56,-6.19 -10.26,-6.31 -0.06,0 -0.11,0 -0.17,0 -5.62,0 -10.15,5.65 -10.34,5.89 -0.16,0.19 -0.15,0.47 0,0.67 0.18,0.23 4.57,5.64 10.26,5.76 0.06,0 0.12,0 0.18,0z"/>
   </g>
  </g>
 </g>
</svg>
