<?xml version="1.0" encoding="UTF-8"?>
<!DOCTYPE svg PUBLIC "-//W3C//DTD SVG 1.1//EN" "http://www.w3.org/Graphics/SVG/1.1/DTD/svg11.dtd">
<!-- Creator: CorelDRAW (Evaluation Version) -->
<svg xmlns="http://www.w3.org/2000/svg" xml:space="preserve" width="5.9266mm" height="5.9266mm" version="1.1" style="shape-rendering:geometricPrecision; text-rendering:geometricPrecision; image-rendering:optimizeQuality; fill-rule:evenodd; clip-rule:evenodd"
viewBox="0 0 65.85 65.85"
 xmlns:xlink="http://www.w3.org/1999/xlink"
 xmlns:xodm="http://www.corel.com/coreldraw/odm/2003">
 <defs>
  <style type="text/css">
   <![CDATA[
    .fil0 {fill:#1F57C3;fill-rule:nonzero}
    .fil1 {fill:#213479;fill-rule:nonzero}
   ]]>
  </style>
 </defs>
 <g id="Слой_x0020_1">
  <metadata id="CorelCorpID_0Corel-Layer"/>
  <g id="_105553191439456">
   <g>
    <path class="fil0" d="M46.49 54.44c-0.15,0 -0.3,-0.05 -0.42,-0.16l-1.74 -1.57c-1.01,-0 -4.78,-0.01 -5.58,-0.08 -0.91,-0.08 -8.03,-2.89 -8.88,-3.74 -0.57,-0.57 -0.82,-1.31 -0.69,-2.08 0.12,-0.76 0.6,-1.46 1.22,-1.77 0.94,-0.48 2.07,0.03 2.9,0.39 0.21,0.09 0.5,0.22 0.59,0.23 0.32,0.02 0.52,-0.33 0.6,-0.49 0.36,-0.76 0.25,-1.99 -0.66,-2.9l-5.8 -5.8c-0.5,-0.5 -0.89,-1.32 -1.01,-2.12 -0.16,-1.07 0.16,-2.06 0.88,-2.79 0.31,-0.31 0.69,-0.47 1.09,-0.47 0.01,0 0.01,0 0.02,0 0.92,0.01 1.7,0.84 2.32,1.5 0.1,0.11 0.19,0.21 0.28,0.29l5.45 5.46c1.34,-0.76 5.16,-2.85 6.93,-3.08 2.19,-0.28 3.27,1.83 4.52,4.26 0.16,0.31 0.33,0.63 0.49,0.95 1.23,2.33 1.21,4.57 1.15,5.37l1.98 2.2c0.22,0.25 0.22,0.62 -0.01,0.86l-3.5 3.66c-0.24,0.25 -0.64,0.26 -0.9,0.02 -0.25,-0.24 -0.26,-0.64 -0.02,-0.89l3.09 -3.24 -1.77 -1.97c-0.12,-0.14 -0.18,-0.33 -0.15,-0.51 0,-0.02 0.32,-2.43 -0.99,-4.9 -0.17,-0.33 -0.34,-0.65 -0.5,-0.96 -1.2,-2.33 -1.99,-3.75 -3.23,-3.59 -1.52,0.2 -5.48,2.35 -6.88,3.17 -0.25,0.14 -0.56,0.1 -0.76,-0.1l-5.8 -5.8c-0.1,-0.1 -0.2,-0.21 -0.31,-0.32 -0.39,-0.41 -1.04,-1.1 -1.42,-1.1 -0.03,-0 -0.09,-0 -0.2,0.1 -0.45,0.45 -0.63,1.02 -0.52,1.7 0.09,0.62 0.4,1.16 0.65,1.42l5.8 5.8c1.38,1.38 1.44,3.22 0.91,4.34 -0.39,0.83 -1.1,1.28 -1.87,1.2 -0.27,-0.03 -0.58,-0.16 -0.97,-0.33 -0.53,-0.23 -1.42,-0.62 -1.82,-0.42 -0.23,0.11 -0.48,0.44 -0.55,0.84 -0.06,0.37 0.06,0.7 0.34,0.98 0.65,0.61 7.29,3.29 8.1,3.38 0.68,0.06 4.04,0.07 5.71,0.07 0.16,0 0.31,0.06 0.43,0.16l1.92 1.74c0.26,0.24 0.28,0.64 0.05,0.89 -0.13,0.14 -0.3,0.21 -0.47,0.21z"/>
    <path class="fil0" d="M33.92 22.43l-8.05 0c-0.35,0 -0.63,-0.28 -0.63,-0.63 0,-0.35 0.28,-0.63 0.63,-0.63l8.05 0c0.35,0 0.63,0.28 0.63,0.63 0,0.35 -0.28,0.63 -0.63,0.63z"/>
    <path class="fil0" d="M25.4 47.33l-10.94 0c-0.18,0 -0.35,-0.08 -0.47,-0.21 -0.12,-0.13 -0.18,-0.31 -0.16,-0.49l2.46 -24.9c0.03,-0.32 0.3,-0.57 0.63,-0.57l6.11 0c0.35,0 0.63,0.28 0.63,0.63 0,0.35 -0.28,0.63 -0.63,0.63l-5.53 0 -2.34 23.64 10.25 0c0.35,0 0.63,0.28 0.63,0.63 0,0.35 -0.28,0.63 -0.63,0.63z"/>
    <path class="fil0" d="M41.23 37.53c-0.32,0 -0.59,-0.24 -0.63,-0.56l-1.64 -14.54 -2.41 0c-0.35,0 -0.63,-0.28 -0.63,-0.63 0,-0.35 0.29,-0.63 0.63,-0.63l2.98 0c0.32,0 0.6,0.24 0.63,0.56l1.71 15.1c0.04,0.35 -0.21,0.66 -0.56,0.7 -0.02,0 -0.05,0.01 -0.07,0.01z"/>
    <path class="fil0" d="M33.92 26.35c-0.35,0 -0.63,-0.28 -0.63,-0.63l0 -7.51c0,-2.38 -1.94,-4.32 -4.32,-4.32l-0.99 0c-2.38,0 -4.32,1.94 -4.32,4.32l0 7.51c0,0.35 -0.28,0.63 -0.63,0.63 -0.35,0 -0.63,-0.28 -0.63,-0.63l0 -7.51c0,-3.08 2.5,-5.58 5.59,-5.58l0.99 0c3.08,0 5.59,2.5 5.59,5.58l0 7.51c0,0.35 -0.28,0.63 -0.63,0.63z"/>
    <path class="fil0" d="M23.02 25.44c-0.87,0 -1.58,0.71 -1.58,1.58 0,0.87 0.71,1.58 1.58,1.58 0.87,0 1.58,-0.71 1.58,-1.58 0,-0.87 -0.71,-1.58 -1.58,-1.58zm0 4.42c-1.57,0 -2.84,-1.28 -2.84,-2.84 0,-1.57 1.28,-2.84 2.84,-2.84 1.57,0 2.84,1.28 2.84,2.84 0,1.57 -1.28,2.84 -2.84,2.84z"/>
    <path class="fil0" d="M33.92 25.44c-0.87,0 -1.58,0.71 -1.58,1.58 0,0.87 0.71,1.58 1.58,1.58 0.87,0 1.58,-0.71 1.58,-1.58 0,-0.87 -0.71,-1.58 -1.58,-1.58zm0 4.42c-1.57,0 -2.84,-1.28 -2.84,-2.84 0,-1.57 1.28,-2.84 2.84,-2.84 1.57,0 2.84,1.28 2.84,2.84 0,1.57 -1.28,2.84 -2.84,2.84z"/>
   </g>
   <path class="fil1" d="M32.93 64.33c8.67,0 16.52,-3.52 22.21,-9.2 5.68,-5.68 9.2,-13.53 9.2,-22.21 0,-8.67 -3.52,-16.52 -9.2,-22.21 -5.68,-5.68 -13.53,-9.2 -22.21,-9.2 -8.67,0 -16.52,3.52 -22.21,9.2 -5.68,5.68 -9.2,13.53 -9.2,22.21 0,8.67 3.52,16.52 9.2,22.21 5.68,5.68 13.53,9.2 22.21,9.2zm23.28 -8.12c-5.96,5.96 -14.19,9.64 -23.28,9.64 -9.09,0 -17.32,-3.69 -23.28,-9.64 -5.96,-5.96 -9.64,-14.19 -9.64,-23.28 0,-9.09 3.69,-17.32 9.64,-23.28 5.96,-5.96 14.19,-9.64 23.28,-9.64 9.09,0 17.32,3.69 23.28,9.64 5.96,5.96 9.64,14.19 9.64,23.28 0,9.09 -3.69,17.32 -9.64,23.28z"/>
  </g>
 </g>
</svg>
