<?xml version="1.0" encoding="UTF-8"?>
<!DOCTYPE svg PUBLIC "-//W3C//DTD SVG 1.1//EN" "http://www.w3.org/Graphics/SVG/1.1/DTD/svg11.dtd">
<!-- Creator: CorelDRAW (Evaluation Version) -->
<svg xmlns="http://www.w3.org/2000/svg" xml:space="preserve" width="5.9266mm" height="5.9266mm" version="1.1" style="shape-rendering:geometricPrecision; text-rendering:geometricPrecision; image-rendering:optimizeQuality; fill-rule:evenodd; clip-rule:evenodd"
viewBox="0 0 593.98 593.98"
 xmlns:xlink="http://www.w3.org/1999/xlink"
 xmlns:xodm="http://www.corel.com/coreldraw/odm/2003">
 <defs>
  <style type="text/css">
   <![CDATA[
    .fil0 {fill:#1F57C3;fill-rule:nonzero}
    .fil1 {fill:#213479;fill-rule:nonzero}
   ]]>
  </style>
 </defs>
 <g id="Слой_x0020_1">
  <metadata id="CorelCorpID_0Corel-Layer"/>
  <g id="_105553191044032">
   <g>
    <path class="fil0" d="M296.69 126.45c-56.69,0 -108.28,28.68 -138.1,76.71 -47.28,76.07 -23.79,176.41 52.22,223.66 25.79,16.02 55.29,24.49 85.57,24.49 56.7,0 108.29,-28.67 138.11,-76.73 47.27,-76.05 23.78,-176.36 -52.22,-223.63 -25.8,-16.03 -55.45,-24.5 -85.58,-24.5zm-0.31 336.51l0 0c-32.43,0 -64.1,-9.08 -91.75,-26.24 -81.41,-50.65 -106.59,-158.19 -55.92,-239.72 31.98,-51.46 87.28,-82.21 147.99,-82.21 32.44,0 64.11,9.1 91.76,26.27 81.4,50.65 106.59,158.18 55.91,239.68 -31.97,51.5 -87.27,82.22 -147.99,82.22z"/>
    <path class="fil0" d="M349.22 142.01c-44.49,0 -98.56,38.66 -134.24,96.21 -23.17,37.25 -36.15,77.68 -36.61,113.76 -0.31,35.01 11.12,61.61 32.44,74.84 9.57,5.94 20.7,8.94 33.05,8.94 44.49,0 98.4,-38.65 134.24,-96.2 23.17,-37.26 36.15,-77.69 36.61,-113.77 0.31,-35.02 -11.12,-61.62 -32.44,-74.83 -9.58,-5.95 -20.7,-8.95 -33.05,-8.95zm-105.35 305.4l0 0c-14.67,0 -27.8,-3.58 -39.24,-10.68 -24.88,-15.46 -38.31,-45.62 -37.84,-84.87 0.46,-38.21 14.05,-80.75 38.31,-119.79 38.47,-61.81 95,-101.72 144.13,-101.72 14.52,0 27.8,3.58 39.24,10.7 24.87,15.46 38.31,45.6 37.84,84.87 -0.46,38.19 -14.06,80.74 -38.32,119.81 -38.47,61.78 -95,101.68 -144.12,101.68z"/>
    <path class="fil0" d="M464.6 286.45c-1.08,0 -2.16,-0.3 -3.09,-0.87l-151.7 -94.26c-2.78,-1.68 -3.55,-5.29 -1.85,-8 1.7,-2.76 5.25,-3.59 8.04,-1.9l151.7 94.26c2.63,1.71 3.55,5.3 1.84,8.04 -1.07,1.77 -3.09,2.74 -4.94,2.74z"/>
    <path class="fil0" d="M275.83 169.22c-0.92,0 -2,-0.27 -3.09,-0.88l-46.34 -28.79c-2.78,-1.73 -3.55,-5.32 -1.85,-8.05 1.7,-2.74 5.25,-3.56 8.04,-1.87l46.34 28.81c2.78,1.71 3.55,5.29 1.85,8.05 -1.08,1.77 -2.94,2.74 -4.95,2.74z"/>
    <path class="fil0" d="M361.1 450.03c-0.92,0 -2,-0.29 -2.93,-0.88l-46.04 -28.51c-2.62,-1.68 -3.55,-5.27 -1.84,-8 1.69,-2.74 5.4,-3.59 8.03,-1.9l45.88 28.51c2.78,1.73 3.55,5.3 1.85,8.05 -1.08,1.78 -2.94,2.74 -4.95,2.74z"/>
    <path class="fil0" d="M277.85 398.3c-0.93,0 -2.01,-0.29 -2.94,-0.88l-149.37 -92.76c-2.64,-1.68 -3.56,-5.27 -1.85,-8.02 1.69,-2.74 5.25,-3.59 8.03,-1.88l149.22 92.76c2.79,1.7 3.56,5.3 1.85,8.02 -1.08,1.78 -2.94,2.77 -4.94,2.77z"/>
    <path class="fil0" d="M414.09 367.75c-1.08,0 -2.16,-0.3 -3.09,-0.87l-260.45 -161.84c-2.78,-1.68 -3.55,-5.3 -1.85,-8.04 1.7,-2.72 5.25,-3.55 8.04,-1.86l260.44 161.83c2.63,1.69 3.56,5.31 1.85,8.02 -1.07,1.77 -3.09,2.77 -4.94,2.77z"/>
    <path class="fil0" d="M204.16 435.39c-1.08,0 -2.16,-0.28 -3.09,-0.88 -2.79,-1.69 -3.56,-5.28 -1.85,-8l177.49 -285.68c1.7,-2.74 5.25,-3.58 8.04,-1.85 2.78,1.68 3.55,5.27 1.85,8.01l-177.5 285.66c-1.08,1.77 -2.94,2.75 -4.94,2.75z"/>
   </g>
   <path class="fil1" d="M296.99 580.28c78.23,0 149.05,-31.71 200.32,-82.97 51.26,-51.26 82.97,-122.08 82.97,-200.32 0,-78.23 -31.71,-149.05 -82.97,-200.32 -51.26,-51.26 -122.08,-82.97 -200.32,-82.97 -78.23,0 -149.05,31.71 -200.32,82.97 -51.26,51.26 -82.97,122.08 -82.97,200.32 0,78.23 31.71,149.05 82.97,200.32 51.26,51.26 122.08,82.97 200.32,82.97zm210.01 -73.28c-53.74,53.74 -128,86.98 -210.01,86.98 -82.01,0 -156.27,-33.24 -210.01,-86.98 -53.74,-53.74 -86.98,-128 -86.98,-210.01 0,-82.01 33.24,-156.27 86.98,-210.01 53.74,-53.74 128,-86.98 210.01,-86.98 82.01,0 156.27,33.24 210.01,86.98 53.74,53.74 86.98,128 86.98,210.01 0,82.01 -33.24,156.27 -86.98,210.01z"/>
  </g>
 </g>
</svg>
