<?xml version="1.0" encoding="UTF-8"?>
<!DOCTYPE svg PUBLIC "-//W3C//DTD SVG 1.1//EN" "http://www.w3.org/Graphics/SVG/1.1/DTD/svg11.dtd">
<!-- Creator: CorelDRAW (Evaluation Version) -->
<svg xmlns="http://www.w3.org/2000/svg" xml:space="preserve" width="5.9266mm" height="5.9266mm" version="1.1" style="shape-rendering:geometricPrecision; text-rendering:geometricPrecision; image-rendering:optimizeQuality; fill-rule:evenodd; clip-rule:evenodd"
viewBox="0 0 53.88 53.88"
 xmlns:xlink="http://www.w3.org/1999/xlink"
 xmlns:xodm="http://www.corel.com/coreldraw/odm/2003">
 <defs>
  <style type="text/css">
   <![CDATA[
    .fil0 {fill:#1F57C3;fill-rule:nonzero}
    .fil1 {fill:#213479;fill-rule:nonzero}
   ]]>
  </style>
 </defs>
 <g id="Слой_x0020_1">
  <metadata id="CorelCorpID_0Corel-Layer"/>
  <g id="_105553191446688">
   <g>
    <path class="fil0" d="M23.37 35.47l1.52 0.33 0.61 -1.9c0.06,-0.2 0.25,-0.34 0.46,-0.34 0.27,-0 0.53,-0.02 0.78,-0.06l0.16 -0.02c0.25,-0.04 0.5,-0.09 0.76,-0.15 0.21,-0.06 0.42,0.03 0.53,0.21l1.1 1.66 1.38 -0.73 -0.74 -1.82c-0.08,-0.2 -0.02,-0.43 0.14,-0.57 0.45,-0.37 0.84,-0.8 1.17,-1.27 0.12,-0.18 0.34,-0.25 0.55,-0.19l1.86 0.56 0.6 -1.45 -1.72 -0.9c-0.19,-0.1 -0.29,-0.31 -0.26,-0.53 0.1,-0.57 0.13,-1.15 0.07,-1.74 -0.02,-0.21 0.09,-0.42 0.29,-0.5l1.77 -0.77 -0.47 -1.49 -1.84 0.4c-0.21,0.05 -0.43,-0.05 -0.54,-0.24 -0.28,-0.52 -0.65,-1 -1.08,-1.43 -0.16,-0.15 -0.19,-0.38 -0.09,-0.57l0.83 -1.67 -1.32 -0.83 -1.13 1.46c-0.13,0.17 -0.36,0.24 -0.56,0.16 -0.58,-0.21 -1.17,-0.34 -1.77,-0.38 -0.22,-0.01 -0.4,-0.17 -0.45,-0.38l-0.43 -1.8 -1.55 0.21 0.07 1.85c0.01,0.22 -0.13,0.41 -0.32,0.49 -0.57,0.2 -1.11,0.48 -1.6,0.84 -0.18,0.13 -0.41,0.13 -0.59,-0l-1.48 -1.1 -1.05 1.16 1.25 1.38c0.13,0.14 0.17,0.34 0.09,0.51l-0.71 1.8c-0.06,0.18 -0.23,0.3 -0.42,0.31l-1.89 0.11 -0.06 1.56 1.93 0.26c0.21,0.03 0.38,0.19 0.42,0.41 0.09,0.57 0.27,1.13 0.53,1.66 0.08,0.19 0.04,0.43 -0.12,0.57l-1.4 1.33 0.96 1.23 1.65 -1.04c0.18,-0.11 0.42,-0.1 0.58,0.04 0.45,0.37 0.94,0.67 1.48,0.91 0.19,0.09 0.31,0.29 0.28,0.51l-0.22 1.95zm1.85 1.4c-0.03,0 -0.06,-0 -0.1,-0.01l-2.4 -0.52c-0.24,-0.05 -0.41,-0.29 -0.39,-0.54l0.24 -2.04c-0.39,-0.19 -0.74,-0.42 -1.09,-0.67l-1.73 1.1c-0.21,0.14 -0.49,0.09 -0.65,-0.11l-1.51 -1.94c-0.16,-0.2 -0.14,-0.49 0.05,-0.66l1.47 -1.39c-0.17,-0.4 -0.29,-0.81 -0.4,-1.23l-2.01 -0.27c-0.25,-0.03 -0.43,-0.25 -0.43,-0.51l0.09 -2.46c0.01,-0.25 0.21,-0.46 0.47,-0.47l2.01 -0.12 0.48 -1.22 -1.35 -1.48c-0.17,-0.19 -0.17,-0.48 0,-0.67l1.64 -1.82c0.18,-0.19 0.46,-0.22 0.66,-0.06l1.56 1.16c0.39,-0.25 0.8,-0.46 1.21,-0.64l-0.08 -1.94c-0.01,-0.25 0.18,-0.47 0.43,-0.51l2.43 -0.34c0.26,-0.04 0.49,0.13 0.55,0.38l0.46 1.89c0.45,0.05 0.9,0.15 1.33,0.29l1.19 -1.54c0.16,-0.2 0.43,-0.25 0.65,-0.12l2.08 1.31c0.21,0.13 0.29,0.41 0.18,0.64l-0.88 1.76c0.3,0.33 0.58,0.69 0.82,1.07l1.93 -0.42c0.25,-0.05 0.5,0.09 0.58,0.33l0.75 2.34c0.08,0.24 -0.04,0.5 -0.27,0.6l-1.86 0.81c0.02,0.43 0.01,0.87 -0.04,1.29l1.79 0.94c0.23,0.12 0.33,0.39 0.23,0.62l-0.92 2.28c-0.11,0.23 -0.36,0.36 -0.61,0.29l-1.96 -0.59c-0.26,0.34 -0.54,0.65 -0.86,0.94l0.79 1.9c0.09,0.24 -0.01,0.51 -0.23,0.62l-2.18 1.15c-0.22,0.12 -0.5,0.05 -0.64,-0.16l-1.15 -1.75c-0.18,0.04 -0.36,0.07 -0.53,0.09l-0.16 0.02c-0.18,0.03 -0.36,0.04 -0.53,0.05l-0.64 2c-0.06,0.21 -0.25,0.34 -0.47,0.34z"/>
    <path class="fil0" d="M25.92 30.76c-0.79,0 -1.54,-0.25 -2.18,-0.74 -0.78,-0.59 -1.27,-1.44 -1.4,-2.4 -0.04,-0.27 0.15,-0.52 0.42,-0.56 0.27,-0.04 0.52,0.15 0.56,0.42 0.1,0.7 0.46,1.32 1.03,1.74 0.56,0.43 1.26,0.61 1.96,0.51 1.44,-0.2 2.45,-1.53 2.25,-2.98 -0.09,-0.7 -0.46,-1.32 -1.03,-1.74 -0.56,-0.42 -1.26,-0.61 -1.95,-0.51 -0.43,0.06 -0.82,0.21 -1.16,0.45 -0.22,0.16 -0.53,0.1 -0.69,-0.12 -0.16,-0.22 -0.09,-0.53 0.13,-0.69 0.46,-0.33 1.02,-0.55 1.59,-0.63 0.95,-0.13 1.91,0.12 2.68,0.7 0.77,0.58 1.27,1.43 1.4,2.39 0.27,1.98 -1.11,3.82 -3.1,4.09 -0.17,0.02 -0.34,0.04 -0.5,0.04z"/>
    <path class="fil0" d="M40.36 23.03c-0.07,0 -0.14,-0.01 -0.21,-0.04l-5.67 -2.57c-0.25,-0.11 -0.37,-0.4 -0.25,-0.65 0.12,-0.25 0.41,-0.36 0.66,-0.25l5.13 2.33 1.27 -5.21c0.06,-0.26 0.33,-0.43 0.6,-0.36 0.27,0.07 0.43,0.33 0.37,0.6l-1.41 5.79c-0.04,0.14 -0.14,0.26 -0.26,0.33 -0.07,0.03 -0.15,0.05 -0.22,0.05z"/>
    <path class="fil0" d="M25.76 42.97c-2.65,0 -5.27,-0.67 -7.65,-1.99 -3.69,-2.05 -6.35,-5.41 -7.51,-9.46 -2.39,-8.37 2.48,-17.12 10.85,-19.51 8.07,-2.3 16.52,2.1 19.25,10.03 0.09,0.26 -0.04,0.54 -0.3,0.63 -0.26,0.09 -0.53,-0.05 -0.63,-0.31 -2.56,-7.43 -10.49,-11.56 -18.05,-9.4 -7.84,2.24 -12.4,10.44 -10.16,18.29 1.08,3.8 3.58,6.95 7.04,8.87 3.45,1.92 7.45,2.38 11.25,1.3 5.35,-1.53 9.36,-5.87 10.45,-11.33 0.06,-0.27 0.31,-0.44 0.59,-0.39 0.27,0.05 0.44,0.31 0.39,0.58 -1.17,5.82 -5.45,10.45 -11.16,12.08 -1.44,0.41 -2.89,0.61 -4.35,0.61z"/>
   </g>
   <path class="fil1" d="M26.94 52.64c7.1,0 13.52,-2.88 18.17,-7.53 4.65,-4.65 7.53,-11.07 7.53,-18.17 0,-7.1 -2.88,-13.52 -7.53,-18.17 -4.65,-4.65 -11.07,-7.53 -18.17,-7.53 -7.1,0 -13.52,2.88 -18.17,7.53 -4.65,4.65 -7.53,11.07 -7.53,18.17 0,7.1 2.88,13.52 7.53,18.17 4.65,4.65 11.07,7.53 18.17,7.53zm19.05 -6.65c-4.87,4.87 -11.61,7.89 -19.05,7.89 -7.44,0 -14.17,-3.02 -19.05,-7.89 -4.87,-4.87 -7.89,-11.61 -7.89,-19.05 0,-7.44 3.02,-14.17 7.89,-19.05 4.87,-4.87 11.61,-7.89 19.05,-7.89 7.44,0 14.17,3.02 19.05,7.89 4.87,4.87 7.89,11.61 7.89,19.05 0,7.44 -3.02,14.17 -7.89,19.05z"/>
  </g>
 </g>
</svg>
