<svg width="10" height="6" viewBox="0 0 10 6" fill="none" xmlns="http://www.w3.org/2000/svg">
<path fill-rule="evenodd" clip-rule="evenodd" d="M0.821712 0.0726662C-0.16174 0.0726662 0.0118106 0.361917 0.0118106 1.69247L0.0262731 5.25025C0.0841232 5.6552 0.402299 5.66966 0.821712 5.66966C1.60269 5.66966 2.39813 5.66966 3.1791 5.66966C3.56959 5.66966 3.96008 5.71305 4.10471 5.38041C4.26379 5.03331 4.06132 4.68621 3.71422 4.62836H1.0965C1.06758 4.32465 1.02419 3.63045 1.12543 3.39905L3.32373 3.37012C3.87331 3.21103 3.84438 2.35775 3.13572 2.32882C2.55722 2.2999 1.63161 2.40113 1.11096 2.2999V1.14289C2.44152 0.911493 4.13363 1.57677 3.98901 0.492079C3.93116 0.0871287 3.59852 0.0726662 3.19357 0.0726662C2.41259 0.0726662 1.61715 0.0726662 0.836175 0.0726662H0.821712Z" fill="black"/>
<path fill-rule="evenodd" clip-rule="evenodd" d="M6.24516 2.86393L8.28437 5.4238C8.53024 5.66966 9.10874 5.81429 9.29675 5.4238C9.42691 5.16347 9.3546 1.27305 9.3546 0.810253C9.3546 0.419765 9.26783 -0.0141105 8.76164 0.000351991C8.24099 0.0148145 8.25545 0.578853 8.25545 0.868104C8.25545 1.76478 8.26991 2.69038 8.25545 3.60152C7.98066 3.44243 5.89806 0.622241 5.50757 0.260677C5.34848 0.116052 5.04477 -0.0430356 4.72659 0.116052C4.48073 0.246215 4.52412 0.622241 4.52412 0.969341C4.53858 2.31436 4.50966 3.65937 4.52412 4.98992C4.52412 5.90106 5.43526 5.79982 5.56542 5.33702C5.63773 5.09116 5.59435 2.71931 5.60881 2.03957C5.6522 2.11188 6.15838 2.73377 6.25962 2.84947L6.24516 2.86393Z" fill="black"/>
</svg>
