<svg xmlns="http://www.w3.org/2000/svg" xml:space="preserve" width="4.2631mm" height="4.2333mm" version="1.1" style="shape-rendering:geometricPrecision; text-rendering:geometricPrecision; image-rendering:optimizeQuality; fill-rule:evenodd; clip-rule:evenodd"
viewBox="0 0 110.61 109.84"
 xmlns:xlink="http://www.w3.org/1999/xlink"
 xmlns:xodm="http://www.corel.com/coreldraw/odm/2003">
 <defs>
  <style type="text/css">
   <![CDATA[
    .fil0 {fill:#00CCFF;fill-rule:nonzero}
   ]]>
  </style>
 </defs>
 <g id="Слой_x0020_1">
  <metadata id="CorelCorpID_0Corel-Layer"/>
  <g id="_105553223812736">
   <g>
    <path class="fil0" d="M64.2 72.31c-2.36,0 -5.13,-0.22 -8.4,-0.65l-0.53 -0.07c-0.98,-0.12 -1.83,-0.72 -2.74,-1.34 -1.62,-1.15 -3.02,-2.13 -5.38,-0.9 -0.18,0.1 -0.39,0.16 -0.6,0.16l-11.29 0c-0.46,0 -0.88,-0.23 -1.13,-0.61 -0.14,-0.22 -3.48,-5.46 -3.48,-10.81 0,-5.37 3.38,-10.2 3.52,-10.4 0.25,-0.35 0.63,-0.56 1.09,-0.56l8.4 0c0.74,0 1.34,0.6 1.34,1.33 0,0.73 -0.6,1.33 -1.34,1.33l-7.7 0c-0.81,1.31 -2.64,4.75 -2.64,8.31 0,3.61 1.86,7.33 2.67,8.76l10.19 0c3.62,-1.75 6.15,0.03 7.88,1.21 0.56,0.4 1.19,0.84 1.55,0.89l0.53 0.07c11.57,1.56 14.17,-0.15 14.77,-0.96 1.3,-1.81 1.94,-3.35 3.03,-5.88 0.35,-0.87 0.77,-1.86 1.26,-2.99 1.41,-3.23 4.36,-9.94 2.6,-12.19 -2.95,-3.73 -14.73,-1.48 -18.63,-0.4 -0.49,0.14 -1.02,-0.01 -1.33,-0.39 -0.35,-0.38 -0.42,-0.91 -0.25,-1.38 0.88,-2.18 2.81,-8.45 1.3,-11.29 -1.13,-2.11 -3.09,-2.49 -4.29,-2.5 -0.25,2.23 -0.95,7.32 -2.11,10.87 -0.84,2.57 -2.22,4.52 -3.24,5.71 -0.49,0.56 -1.3,0.62 -1.86,0.15 -0.56,-0.48 -0.63,-1.31 -0.18,-1.87 0.88,-1 2.04,-2.65 2.74,-4.81 1.41,-4.29 2.11,-11.35 2.15,-11.42 0.03,-0.58 0.49,-1.06 1.05,-1.17 1.9,-0.37 6.05,-0.06 8.09,3.8 1.65,3.14 0.56,8.17 -0.35,11.15 4.89,-1.08 15.33,-2.73 18.99,1.91 2.53,3.24 0.28,9.13 -2.25,14.9 -0.49,1.12 -0.88,2.1 -1.26,2.96 -1.09,2.61 -1.83,4.34 -3.31,6.41 -1.3,1.81 -4.19,2.7 -8.86,2.7z"/>
    <path class="fil0" d="M45.32 69.51c-0.74,0 -1.34,-0.59 -1.34,-1.32l-0.04 -13.68c-0.03,-0.73 0.56,-1.33 1.3,-1.33l0 0c0.74,0 1.34,0.59 1.34,1.32l0.04 13.67c0,0.74 -0.56,1.34 -1.3,1.34l0 0z"/>
   </g>
   <path class="fil0" d="M35.24 96.65c4.87,0 9.48,2.66 11.72,6.76 1.1,2.01 2.59,3.11 4.26,3.11 1.45,0 2.9,-0.85 4.13,-2.41 2.41,-3.07 6.32,-4.9 10.45,-4.9 2.42,0 4.74,0.64 6.72,1.85 1.14,0.69 2.28,1.07 3.34,1.07 2.24,0 3.87,-1.73 4.26,-4.61 0.92,-6.38 6.81,-11.36 13.35,-11.17l0.26 0c2.02,0 3.6,-0.68 4.43,-1.91 0.83,-1.24 0.88,-2.99 0.09,-4.92 -2.42,-5.95 0.22,-13.26 5.93,-16.31 1.89,-1.01 2.99,-2.4 3.12,-3.92 0.13,-1.52 -0.75,-3.07 -2.42,-4.38 -5.09,-3.95 -6.46,-11.6 -3.07,-17.06 1.1,-1.8 1.36,-3.54 0.74,-4.92 -0.66,-1.39 -2.2,-2.33 -4.35,-2.62 -6.37,-0.9 -11.42,-6.83 -11.24,-13.25 0.04,-1.79 -0.4,-3.24 -1.32,-4.18 -1.23,-1.27 -3.34,-1.48 -5.58,-0.58 -1.49,0.6 -3.07,0.9 -4.7,0.9l0 0c-4.87,0 -9.48,-2.66 -11.72,-6.77 -1.05,-1.97 -2.63,-3.11 -4.26,-3.11 -1.45,0 -2.9,0.86 -4.13,2.41 -2.42,3.07 -6.32,4.9 -10.45,4.9 -2.42,0 -4.74,-0.64 -6.72,-1.84 -1.14,-0.7 -2.28,-1.07 -3.34,-1.07 -2.28,0 -3.86,1.73 -4.26,4.62 -0.92,6.38 -6.81,11.35 -13.35,11.17l-0.26 -0.01c-2.02,0 -3.6,0.68 -4.43,1.91 -0.83,1.25 -0.88,2.99 -0.09,4.93 2.42,5.95 -0.26,13.26 -5.93,16.31 -1.89,1.01 -2.99,2.4 -3.12,3.92 -0.13,1.52 0.75,3.07 2.42,4.37 5.09,3.95 6.46,11.61 3.07,17.07 -1.1,1.8 -1.36,3.54 -0.75,4.92 0.66,1.39 2.2,2.32 4.35,2.62 6.37,0.89 11.42,6.83 11.24,13.24 -0.04,1.79 0.39,3.24 1.32,4.18 1.23,1.27 3.34,1.49 5.58,0.58 1.49,-0.6 3.07,-0.89 4.7,-0.89zm15.98 13.19c-2.9,0 -5.49,-1.76 -7.16,-4.84 -1.67,-3.06 -5.13,-5.03 -8.82,-5.03 -1.23,0 -2.37,0.23 -3.47,0.65 -3.56,1.42 -6.98,0.9 -9.18,-1.34 -1.54,-1.61 -2.32,-3.88 -2.28,-6.58 0.18,-4.78 -3.6,-9.2 -8.39,-9.87 -3.25,-0.45 -5.71,-2.05 -6.85,-4.48 -1.14,-2.43 -0.79,-5.3 0.92,-8.07 2.5,-4.07 1.49,-9.76 -2.28,-12.71 -2.64,-2.02 -3.91,-4.6 -3.69,-7.27 0.22,-2.67 1.93,-5 4.83,-6.55 4.26,-2.27 6.23,-7.72 4.43,-12.15 -1.23,-2.98 -1.05,-5.83 0.39,-8.02 1.54,-2.26 4.22,-3.47 7.6,-3.37l0.22 0c4.7,0 9.04,-3.73 9.7,-8.34 0.66,-4.52 3.6,-7.46 7.55,-7.46 1.67,0 3.42,0.54 5.09,1.56 1.45,0.89 3.16,1.36 4.96,1.36 3.12,0 6.06,-1.36 7.86,-3.64 1.84,-2.37 4.26,-3.68 6.72,-3.68 2.9,0 5.49,1.77 7.16,4.84 1.67,3.06 5.14,5.03 8.82,5.03l0 0c1.23,0 2.37,-0.22 3.47,-0.65 3.56,-1.42 6.98,-0.9 9.18,1.35 1.54,1.6 2.33,3.87 2.24,6.58 -0.13,4.69 3.73,9.21 8.43,9.86 3.25,0.46 5.71,2.05 6.85,4.5 1.14,2.42 0.79,5.29 -0.92,8.07 -2.5,4.07 -1.49,9.76 2.28,12.7 2.59,2.02 3.91,4.6 3.69,7.27 -0.22,2.68 -1.93,5.01 -4.87,6.56 -4.22,2.27 -6.19,7.72 -4.39,12.14 1.23,2.99 1.06,5.84 -0.39,8.03 -1.54,2.25 -4.22,3.47 -7.55,3.36l-0.26 0c-4.7,0 -9.04,3.74 -9.7,8.34 -0.66,4.53 -3.6,7.46 -7.55,7.46 -1.67,0 -3.42,-0.54 -5.09,-1.56 -1.45,-0.88 -3.16,-1.36 -4.96,-1.36 -3.12,0 -6.06,1.36 -7.86,3.64 -1.84,2.37 -4.26,3.67 -6.72,3.67z"/>
   <path class="fil0" d="M55.31 20.67c-18.89,0 -34.25,15.36 -34.25,34.25 0,18.89 15.36,34.25 34.25,34.25 18.89,0 34.24,-15.36 34.24,-34.25 0,-18.89 -15.35,-34.25 -34.24,-34.25zm0 71.59c-20.61,0 -37.37,-16.75 -37.37,-37.34 0,-20.6 16.75,-37.35 37.37,-37.35 20.61,0 37.36,16.75 37.36,37.35 0,20.59 -16.75,37.34 -37.36,37.34z"/>
  </g>
 </g>
</svg>
