<svg width="26" height="8" viewBox="0 0 26 8" fill="none" xmlns="http://www.w3.org/2000/svg">
<path fill-rule="evenodd" clip-rule="evenodd" d="M0.436391 0.128008C0.337476 0.0930968 0.366569 0.128008 0.331657 0.0581855L0.180375 0.0349113C0.0872782 0.0232742 0.0698226 0.0174556 0 0V6.84843C0.133827 6.84843 2.89764 7.54666 3.27584 7.63394C3.50277 7.6863 3.53768 7.74449 3.75878 7.74449C3.75878 5.89419 3.75878 4.04971 3.75878 2.19941C3.75878 1.92594 3.78787 1.77466 3.68896 1.57683C3.58423 1.36736 3.5435 1.33245 3.39221 1.18117C2.96164 0.744774 2.04231 0.564399 1.40227 0.389843L0.436391 0.128008Z" fill="black"/>
<path fill-rule="evenodd" clip-rule="evenodd" d="M4.36973 0.512031C5.27742 0.960059 5.08541 1.39645 5.08541 2.55434V6.69715C5.39961 6.69133 5.88255 6.37131 6.0862 6.16766C6.34222 5.91164 6.5575 5.51598 6.56332 5.1145C6.58078 4.42791 6.43531 3.9217 5.84764 3.53186C5.73127 3.45622 5.48689 3.31657 5.31233 3.30493C5.35888 3.24093 5.42289 3.21766 5.49271 3.17693C5.96983 2.89764 6.24912 2.36233 6.26076 1.79793C6.26658 1.65247 6.21421 1.37899 6.1793 1.26262C6.13857 1.14043 6.04547 0.948422 5.97565 0.849507C5.42289 0.0872771 4.43373 0.011636 3.56095 0.00581741H3.1362L0.76223 0.011636C0.692407 0.0290916 0.750593 -1.13366e-06 0.704044 0.0407287L0.855327 0.0640029C0.884419 0.0232731 0.814597 0.0349102 0.907693 0.0349102C0.930968 0.07564 0.913512 0.07564 0.965879 0.0814585C1.07643 0.0989142 1.02988 0.0581843 1.11134 0.0698214C1.26844 0.0872771 1.04734 0.0989142 1.23353 0.0989142L1.48373 0.122188C1.55937 0.122188 1.54773 0.122188 1.62337 0.128007C1.75138 0.139644 1.81539 0.151281 1.9434 0.168737C2.49034 0.244378 3.86352 0.279289 4.35227 0.51785L4.36973 0.512031Z" fill="black"/>
<path fill-rule="evenodd" clip-rule="evenodd" d="M7.09281 1.58265C7.38956 2.03067 8.99548 4.06135 9.03621 4.21263L8.79183 4.53265C8.69873 4.65484 8.62891 4.74212 8.53581 4.86431C8.41944 5.01559 7.06954 6.7437 7.04044 6.84843L8.66964 6.84261C8.74528 6.81934 9.62388 5.6149 9.74607 5.44034C9.7868 5.37634 9.83335 5.33561 9.8508 5.26579C9.95554 5.29488 10.0486 5.48689 10.165 5.64399C10.2697 5.78364 10.3512 5.90583 10.4559 6.04547L11.0261 6.85425H12.7659C12.6903 6.70879 12.3877 6.3364 12.2655 6.1793C12.0909 5.94656 11.9338 5.74291 11.7593 5.51017L10.7469 4.1719C11.0145 3.77624 12.5913 1.77466 12.6903 1.58846H11.0552L10.5025 2.33906C10.4385 2.42633 9.97881 3.00819 9.95554 3.09547C9.84498 3.06638 9.72861 2.83945 9.66461 2.74635L8.96638 1.78629C8.91402 1.70483 8.8791 1.66992 8.83256 1.58846H7.09281V1.58265Z" fill="black"/>
<path fill-rule="evenodd" clip-rule="evenodd" d="M17.5662 1.99576C16.4258 1.25099 14.6627 1.3499 13.7201 2.28087C13.3012 2.69399 12.923 3.33984 12.923 4.16608C12.923 5.43452 13.5398 6.22003 14.5406 6.68551C15.5181 7.14518 17.1007 6.97062 17.9386 6.13857C18.0084 6.06874 18.0317 6.03965 18.0899 5.95819C19.0092 4.8643 18.8812 3.18856 17.9386 2.28669L17.5662 1.98994V1.99576ZM14.8315 3.18856C15.4308 2.51361 16.7225 2.64162 17.0542 3.61332C17.2404 4.16026 17.1764 4.83521 16.8156 5.24833C16.6178 5.47525 16.257 5.6789 15.8381 5.6789C14.4125 5.6789 14.1682 3.94497 14.8373 3.19438L14.8315 3.18856Z" fill="black"/>
<path fill-rule="evenodd" clip-rule="evenodd" d="M20.2253 1.58265L20.1031 4.06717C20.0449 4.51519 19.9634 5.24251 19.5794 5.48689C19.4223 5.58581 19.271 5.59163 19.0208 5.59163V7.99469H20.4522V6.84261H24.1295V7.99469H25.5609V5.59163H24.8219V1.57683H20.2195L20.2253 1.58265ZM21.581 2.83363H23.2916V5.59163H21.0922C21.3832 5.16105 21.4239 4.93995 21.4937 4.38137L21.5519 3.62496C21.5577 3.49695 21.5403 3.34567 21.5519 3.21766C21.5635 3.08965 21.5752 2.99655 21.5752 2.83363H21.581Z" fill="black"/>
</svg>
