<svg width="16" height="17" viewBox="0 0 16 17" fill="none" xmlns="http://www.w3.org/2000/svg">
<path fill-rule="evenodd" clip-rule="evenodd" d="M11.2508 6.51466C11.3924 6.37299 11.6286 6.1841 11.723 6.03063C11.6876 5.90077 11.1563 5.41673 11.0265 5.32229C10.9674 5.27507 10.9202 5.23965 10.8612 5.19243C10.5188 4.9327 10.1647 4.74381 9.76327 4.57853C9.59799 4.51951 9.05493 4.33061 8.86604 4.33061C8.9959 4.51951 9.27923 4.74381 9.45632 4.90909C9.6334 5.08618 10.3535 5.78271 10.4362 5.88896L9.05493 7.27022C9.33826 7.44731 9.56257 7.69522 9.72785 7.99037C9.76327 7.95495 9.79868 7.91953 9.82229 7.89592C10.082 7.6362 10.9438 6.73897 11.1681 6.56188C11.2036 6.53827 11.2154 6.51466 11.2508 6.47924V6.51466ZM8.50006 7.04591C8.50006 6.1723 8.48826 5.31048 8.50006 4.43687C8.50006 4.25978 8.52367 4.25978 8.18131 4.25978C7.47297 4.25978 7.07158 4.31881 6.42227 4.51951C6.12713 4.61395 5.80837 4.76742 5.54865 4.9327C5.46601 4.97993 5.34795 5.02715 5.30073 5.10979H7.49658V7.04591C7.65005 7.0105 7.80353 6.98689 7.96881 6.98689C8.14589 6.98689 8.32298 7.0105 8.48826 7.05772L8.50006 7.04591ZM6.92991 7.27022L4.98198 5.33409C4.92295 5.35771 4.87573 5.40493 4.82851 5.45215L4.43892 5.84174L4.42711 5.85354L4.27364 6.03063C4.25003 6.05424 4.22642 6.08966 4.21461 6.11327C4.191 6.14868 4.17919 6.16049 4.15558 6.19591C3.75419 6.75077 3.52988 7.28203 3.34099 7.93134C3.32919 7.97856 3.29377 8.10842 3.29377 8.16745L4.85212 6.6091C4.99378 6.70355 5.76115 7.48272 6.24518 7.96675C6.41046 7.67161 6.64657 7.4355 6.92991 7.25842V7.27022ZM6.02088 8.55704H3.22294C3.22294 8.67509 3.21113 8.73412 3.21113 8.85218C3.21113 9.21815 3.22294 9.60774 3.29377 9.96191C3.41183 10.564 3.63614 11.1307 3.96669 11.6383C4.00211 11.6855 4.02572 11.7446 4.07294 11.7564V9.53691H6.0681C6.02088 9.35982 5.98546 9.17093 5.98546 8.97023C5.98546 8.82857 5.99726 8.6869 6.03268 8.55704H6.02088ZM4.92295 11.4258C4.75767 11.5911 4.4035 11.8862 4.28545 12.0515C4.32086 12.1814 4.72225 12.5237 4.82851 12.63C5.07642 12.8779 5.52504 13.1612 5.84379 13.3147C6.17435 13.48 6.52852 13.6099 6.89449 13.6925C6.95352 13.7043 7.05977 13.7397 7.13061 13.7397C7.00074 13.5508 5.70212 12.3821 5.56046 12.1696L7.01255 10.7175C6.71741 10.5522 6.46949 10.3279 6.29241 10.0445L4.92295 11.414V11.4258ZM7.49658 10.9182C7.50839 11.8272 7.50839 12.748 7.49658 13.6571C7.49658 13.7751 7.46116 13.8105 7.57922 13.8224C8.50006 13.8932 9.37368 13.7161 10.1883 13.3147L10.5897 13.0786C10.6251 13.055 10.6369 13.055 10.6605 13.0314C10.6723 13.0196 10.6723 13.0196 10.6841 13.0078C10.7077 12.996 10.7077 12.996 10.7195 12.9842C10.6369 12.9605 8.75979 12.9842 8.50006 12.9842V10.8946C8.33478 10.9418 8.1577 10.9654 7.96881 10.9654C7.80353 10.9654 7.65005 10.9418 7.49658 10.9064V10.9182ZM9.88132 9.54871H12.7737C12.7737 9.43065 12.7855 9.37163 12.7855 9.25357C12.7855 8.88759 12.7737 8.4862 12.7029 8.14384C12.6084 7.69522 12.4668 7.28203 12.2661 6.86883L12.1126 6.5973C12.0654 6.52646 12.0063 6.37299 11.9355 6.34938V8.56884H9.92854C9.95216 8.6987 9.97577 8.84037 9.97577 8.98204C9.97577 9.18274 9.95216 9.37163 9.89313 9.54871H9.88132ZM8.94868 10.7175L11.0029 12.7598C11.0619 12.7362 11.1091 12.689 11.1563 12.6418L11.7112 12.0633C11.7348 12.0397 11.7584 12.0043 11.7702 11.9807C11.7938 11.9453 11.8056 11.9335 11.8293 11.898C11.9827 11.6855 12.1362 11.4376 12.2543 11.2015C12.3959 10.9182 12.6793 10.2334 12.6793 9.91469C12.573 9.98552 11.5105 11.0716 11.3098 11.2841C11.2508 11.3432 11.1681 11.4494 11.0973 11.473L9.64521 10.0209C9.46812 10.3043 9.22021 10.5404 8.93687 10.7057L8.94868 10.7175ZM8.44103 8.01398C8.31117 7.89592 8.19311 7.76606 8.06325 7.648L7.957 7.55356L7.5438 7.96675C7.532 7.97856 7.532 7.96675 7.532 7.97856C7.5438 8.00217 7.77992 8.15564 7.79172 8.15564C7.80353 8.15564 7.80353 8.14384 7.81533 8.14384L7.88617 8.08481C7.92158 8.04939 7.9452 8.01398 7.98061 8.01398C7.98061 8.02578 7.98061 8.02578 7.99242 8.03759L8.41742 8.46259C8.45284 8.49801 8.53548 8.58065 8.5709 8.60426C8.5827 8.59245 8.5827 8.59245 8.59451 8.58065L8.71256 8.41537C8.73617 8.39176 8.74798 8.37995 8.75979 8.34453C8.73617 8.32092 8.5827 8.16745 8.55909 8.14384L8.44103 8.02578V8.01398ZM8.87784 7.77786L8.5827 7.93134C8.55909 7.94314 8.51187 7.97856 8.48826 7.97856C8.50006 8.01398 8.51187 8.01398 8.53548 8.03759C8.54728 8.04939 8.54728 8.04939 8.55909 8.0612C8.5827 8.08481 8.60631 8.12023 8.64173 8.13203C8.73618 8.08481 8.85423 8.01398 8.94868 7.99037C8.97229 7.97856 8.98409 7.97856 8.9959 7.97856C8.9959 8.04939 8.86604 8.2737 8.80701 8.36815C8.7952 8.37995 8.7952 8.37995 8.7952 8.39176L8.71256 8.50981C8.65353 8.59245 8.59451 8.67509 8.53548 8.74593C8.47645 8.80495 8.50006 8.80495 8.52367 8.82857C8.54728 8.85218 8.60631 8.92301 8.62992 8.94662C8.65354 8.93482 8.64173 8.94662 8.66534 8.92301L8.87784 8.63968C9.01951 8.45079 9.23201 8.073 9.29104 7.8605C9.30285 7.81328 9.32646 7.76606 9.32646 7.70703C9.32646 7.68342 9.32646 7.68342 9.32646 7.648C9.22021 7.648 8.98409 7.73064 8.87784 7.77786ZM6.98894 7.99037C7.09519 8.03759 7.22505 8.09662 7.3195 8.15564C7.44936 8.23828 7.532 8.29731 7.66186 8.40356C7.76811 8.49801 7.75631 8.4862 7.80353 8.43898C7.9452 8.29731 7.99242 8.37995 7.70908 8.16745L7.63825 8.10842C7.47297 7.99037 7.16602 7.81328 6.98894 7.75425L6.80005 7.68342C6.75283 7.67161 6.6938 7.648 6.64658 7.648C6.62296 7.648 6.59935 7.6362 6.59935 7.65981C6.59935 7.70703 6.62296 7.80147 6.63477 7.83689C6.65838 7.90773 6.67019 7.95495 6.71741 8.04939C6.72921 8.073 6.72921 8.08481 6.74102 8.10842L6.83547 8.29731C6.84727 8.32092 6.84727 8.32092 6.85908 8.34453C6.87088 8.37995 6.91811 8.46259 6.94172 8.4862C6.96533 8.4744 7.08338 8.35634 7.09519 8.33273C7.07158 8.30912 7.05977 8.28551 7.04797 8.25009C7.01255 8.19106 6.92991 8.03759 6.92991 7.97856C6.95352 7.97856 6.97713 7.99037 6.98894 7.99037ZM7.20144 8.30912L6.61116 8.88759C6.58755 8.91121 6.52852 8.95843 6.4931 9.00565L6.92991 9.43065C6.94172 9.41885 7.107 9.18274 7.107 9.17093C7.107 9.15912 6.96533 9.02926 6.95352 9.00565C6.96533 8.99385 6.96533 8.99385 6.96533 8.98204L6.97713 8.97023L7.00074 8.94662L7.02436 8.92301C7.13061 8.82857 7.40214 8.54523 7.47297 8.4744L7.55561 8.40356C7.5438 8.37995 7.50839 8.36815 7.49658 8.35634L7.36672 8.2619C7.35491 8.25009 7.35491 8.25009 7.3313 8.23828C7.28408 8.20287 7.30769 8.19106 7.18964 8.30912H7.20144ZM7.43755 9.99732C7.42575 9.97371 7.29589 9.84385 7.28408 9.84385C7.27227 9.84385 7.14241 9.91469 7.1188 9.92649C7.107 9.9383 7.09519 9.9383 7.07158 9.9501C7.05977 9.96191 7.04797 9.96191 7.02436 9.97371C7.00074 9.98552 7.00074 9.98552 6.97713 9.99732C6.95352 10.0091 6.94172 10.0091 6.92991 10.0091C6.92991 9.97371 6.97713 9.87927 7.00074 9.83205C7.03616 9.7376 7.16602 9.54871 7.22505 9.47788C7.23686 9.45427 7.24866 9.44246 7.26047 9.43065L7.41394 9.24176C7.42575 9.22996 7.43755 9.20635 7.44936 9.19454L7.29589 9.04107L7.18964 9.15912C7.17783 9.17093 7.17783 9.17093 7.16602 9.19454L6.87088 9.64316C6.77644 9.82024 6.61116 10.1272 6.61116 10.3279C6.67019 10.3279 6.72921 10.3043 6.78824 10.2925C6.87088 10.2689 7.08338 10.1862 7.16602 10.1508L7.44936 9.99732H7.43755ZM8.92507 9.04107L8.52367 9.44246C8.51187 9.45427 8.38201 9.58413 8.3702 9.58413C8.3702 9.60774 8.38201 9.59593 8.39381 9.60774L8.59451 9.74941C8.64173 9.78482 8.62992 9.77302 8.71256 9.70218L9.13757 9.27718C9.16118 9.25357 9.17298 9.24176 9.18479 9.22996L9.33826 9.07648C9.37368 9.04107 9.39729 9.00565 9.44451 8.98204L9.25562 8.79315C9.24382 8.78134 9.24382 8.78134 9.24382 8.78134L9.06673 8.60426C9.05493 8.59245 9.01951 8.56884 9.0077 8.54523L8.81881 8.80495C8.84243 8.82857 8.98409 8.95843 8.98409 8.97023C8.98409 8.99385 8.96048 8.99384 8.94868 9.01746L8.92507 9.04107ZM8.98409 9.51329L8.83062 9.65496C8.88965 9.77302 8.90145 9.77302 8.96048 9.91469C8.97229 9.9383 8.98409 9.97371 8.9959 10.0091C8.93687 10.0091 8.80701 9.9383 8.75979 9.91469C8.61812 9.84385 8.44103 9.71399 8.32298 9.61954C8.29937 9.59593 8.19311 9.51329 8.18131 9.51329L8.08686 9.59593C8.07506 9.60774 8.03964 9.63135 8.02784 9.65496C8.03964 9.67857 8.20492 9.79663 8.22853 9.82024C8.33478 9.89107 8.41742 9.9501 8.52367 10.0209L8.68895 10.1154C8.70076 10.1272 8.71256 10.1272 8.72437 10.139C8.73617 10.139 8.73617 10.139 8.74798 10.1508C8.77159 10.1626 8.74798 10.1508 8.77159 10.1626L9.03132 10.2807C9.05493 10.2925 9.09034 10.3043 9.12576 10.3043C9.1966 10.3279 9.26743 10.3515 9.35007 10.3515C9.35007 10.2925 9.31465 10.1744 9.29104 10.1154C9.24382 9.98552 9.17298 9.82024 9.11396 9.71399C9.09034 9.67857 9.03132 9.54871 8.9959 9.5251L8.98409 9.51329ZM7.69728 8.92301L7.83895 8.78134C7.85075 8.76954 7.85075 8.76954 7.86256 8.75773C7.87436 8.74593 7.87436 8.75773 7.88617 8.74593C7.90978 8.72232 7.93339 8.6987 7.957 8.67509L8.07506 8.56884C8.08686 8.55704 8.08686 8.55704 8.09867 8.55704C8.14589 8.52162 8.22853 8.43898 8.28756 8.40356C8.27575 8.39176 8.13409 8.25009 8.13409 8.25009C8.11048 8.25009 8.07506 8.29731 8.05145 8.30912L7.7445 8.58065C7.68547 8.63968 7.55561 8.74593 7.52019 8.79315L7.59103 8.86398C7.61464 8.8994 7.65005 8.92301 7.66186 8.94662C7.68547 8.94662 7.68547 8.93482 7.69728 8.91121V8.92301ZM7.35491 8.6869C7.3313 8.6987 7.20144 8.82857 7.18964 8.84037L7.24866 8.92301C7.27227 8.94662 7.29589 8.97023 7.3195 9.00565L7.55561 9.26537C7.60283 9.3126 7.68547 9.40704 7.7445 9.44246L7.86256 9.33621C7.88617 9.3126 7.88617 9.3244 7.89797 9.30079C7.88617 9.28899 7.88617 9.27718 7.86256 9.26537L7.73269 9.14732C7.72089 9.13551 7.72089 9.13551 7.70908 9.12371C7.69728 9.1119 7.69728 9.1119 7.68547 9.1001L7.67367 9.08829C7.60283 9.01746 7.52019 8.91121 7.44936 8.85218L7.3313 8.71051C7.3195 8.6987 7.3195 8.71051 7.3195 8.6869H7.35491ZM7.957 9.99732C7.93339 9.97371 7.77992 9.82024 7.73269 9.77302L7.63825 9.67857C7.62644 9.66677 7.63825 9.67857 7.62644 9.66677C7.61464 9.65496 7.62644 9.66677 7.61464 9.65496C7.60283 9.64316 7.61464 9.65496 7.60283 9.64316L7.532 9.57232C7.52019 9.56052 7.532 9.57232 7.52019 9.56052L7.46116 9.50149C7.44936 9.48968 7.44936 9.48968 7.43755 9.47788L7.37853 9.41885C7.36672 9.39524 7.35491 9.39524 7.3313 9.38343C7.3195 9.40704 7.3313 9.39524 7.30769 9.41885C7.29589 9.43065 7.30769 9.41885 7.29589 9.43065L7.14241 9.64316C7.16602 9.69038 7.22505 9.72579 7.26047 9.76121L7.93339 10.4223C7.957 10.4223 8.13409 10.2334 8.1577 10.2098L8.29937 10.0682C8.32298 10.0445 8.34659 10.0327 8.3702 9.99732C8.35839 9.98552 8.11047 9.82024 8.11047 9.82024C8.09867 9.82024 8.00422 9.90288 8.00422 9.91469C7.99242 9.92649 8.00422 9.91469 7.99242 9.92649C7.98061 9.9383 7.99242 9.92649 7.98061 9.9383C7.957 9.9501 7.957 9.97371 7.93339 9.98552L7.957 9.99732ZM8.5827 9.3244C8.59451 9.3126 8.73617 9.18274 8.73617 9.17093C8.73617 9.13551 8.65354 9.05287 8.62992 9.02926L8.40562 8.78134C8.39381 8.76954 8.38201 8.75773 8.3702 8.74593L8.29937 8.66329C8.18131 8.53342 8.18131 8.54523 8.14589 8.58065C8.13409 8.59245 8.02784 8.6869 8.02784 8.6869C8.02784 8.71051 8.13409 8.80495 8.1577 8.82857C8.1695 8.82857 8.1577 8.82857 8.1695 8.84037L8.24034 8.91121L8.38201 9.06468C8.39381 9.07648 8.40562 9.08829 8.41742 9.1001C8.42923 9.1119 8.44103 9.12371 8.45284 9.14732C8.46464 9.15912 8.46465 9.17093 8.48826 9.18274L8.59451 9.30079L8.5827 9.3244ZM8.19312 9.12371L7.65006 9.61954C7.66186 9.63135 7.79172 9.77302 7.80353 9.77302C7.82714 9.77302 8.18131 9.45426 8.24034 9.40704C8.28756 9.35982 8.40562 9.25357 8.41742 9.21815L8.3702 9.15912C8.35839 9.14732 8.35839 9.14732 8.34659 9.13551C8.32298 9.1119 8.28756 9.07649 8.27575 9.05287C8.25214 9.05287 8.22853 9.08829 8.19312 9.12371Z" fill="black"/>
<path fill-rule="evenodd" clip-rule="evenodd" d="M7.85075 3.70492C8.83062 3.70492 9.45632 3.85839 10.2001 4.20075C11.7112 4.89729 12.7265 6.1841 13.1397 7.82509C13.2341 8.19106 13.2577 8.61607 13.2813 8.99385C13.2932 9.15913 13.1751 10.0091 13.1397 10.1626C12.9626 11.048 12.3959 12.0751 11.7584 12.7126C11.3334 13.1258 10.7549 13.5626 10.2237 13.7987C8.7834 14.4362 7.22505 14.4717 5.78476 13.8106C5.47782 13.6689 5.2299 13.539 4.94656 13.3383C3.87225 12.571 3.1521 11.4966 2.83335 10.2098C2.76252 9.92649 2.69168 9.34802 2.67988 9.05288L2.7271 8.43898C2.76252 8.21467 2.78613 8.0612 2.82155 7.87231C2.89238 7.51814 3.01044 7.18758 3.1403 6.88064C3.3528 6.3848 3.57711 6.05424 3.88405 5.66465C4.13197 5.3459 4.3917 5.10979 4.71045 4.85006L5.28893 4.44867C5.4424 4.36603 5.56046 4.2952 5.71393 4.22437C6.25699 3.97645 7.05977 3.72853 7.83895 3.72853L7.85075 3.70492ZM10.5306 1.60351C10.5306 2.76047 8.51187 2.04032 8.51187 3.35075C8.42923 3.32714 8.42923 3.29172 8.38201 3.23269C8.34659 3.17366 8.31117 3.13825 8.27576 3.06741C8.00423 2.42991 8.46465 1.70976 9.17298 1.70976C9.11396 1.50907 8.66534 1.3792 8.48826 1.3792C7.957 1.3792 7.50839 1.53268 7.14241 1.89865C6.91811 2.12296 6.77644 2.39449 6.71741 2.73685C6.6938 2.91394 6.82366 3.59867 6.45769 3.59867C6.03268 3.59867 6.29241 2.97297 6.29241 2.78408C6.29241 2.30005 6.23338 1.96949 5.87921 1.67435C4.97017 0.906979 4.10836 1.47365 4.04933 1.69796C4.21461 1.70976 4.41531 1.83962 4.53337 1.92226C5.27712 2.47713 4.10836 3.48061 4.10836 4.04728C4.10836 4.30701 4.25003 4.44867 4.35628 4.64937C3.62433 4.64937 3.23474 3.96464 3.49447 3.31533C3.5535 3.17366 3.64794 3.11463 3.67155 2.97297C2.47918 2.99658 1.93612 4.9209 2.83335 5.61743C3.42363 6.06605 3.08127 6.49105 2.78613 6.32577C2.50279 6.1723 2.19585 4.99173 0.850004 5.44035C0.365972 5.60563 0.0118027 6.00702 0.0118027 6.64452C0.224304 6.5855 0.708336 6.30216 1.0507 6.62091C1.29862 6.85703 1.36945 7.25842 1.4639 7.57717C1.60556 8.08481 1.73543 8.49801 2.37293 8.49801C1.95973 9.1119 0.731947 8.79315 0.731947 7.83689C0.31875 7.94314 0.177082 9.28899 1.07431 9.98552C1.2632 10.1272 1.4757 10.2689 1.79446 10.2689C2.05418 10.2689 2.62085 10.1862 2.62085 10.564C2.62085 10.9772 1.86529 10.6584 1.60556 10.6939C1.06251 10.7647 0.802781 10.93 0.519445 11.355C0.283333 11.721 0.247916 12.146 0.413195 12.5473L0.590279 12.8543C0.649308 12.9251 0.602085 12.9133 0.69653 12.9369C0.767364 12.63 1.03889 12.1932 1.40487 12.1932C2.00696 12.1932 2.5146 12.8543 2.96321 12.8543C3.34099 12.8543 3.38822 12.7953 3.67155 12.6064C3.67155 13.0196 3.45905 13.3619 3.09308 13.5036C2.59724 13.6925 2.32571 13.5036 2.00696 13.2911C2.00696 13.846 2.43196 14.2592 2.88057 14.4481C3.37641 14.6488 4.14378 14.6606 4.53337 14.2592C4.68684 14.1057 4.88753 13.8106 5.15906 13.8106C5.37157 13.8106 5.59587 14.1411 5.13545 14.4126C4.73406 14.6488 4.4035 15.0265 4.4035 15.5578C4.4035 16.3724 4.87573 16.9745 5.71393 16.9745C4.92295 15.4751 6.68199 15.7467 7.26047 15.2745C7.43755 15.1328 7.5438 14.9203 7.5438 14.6015C8.11048 14.9793 7.957 16.1835 6.88269 16.2661C6.95352 16.3724 7.07158 16.4314 7.20144 16.4904C7.29589 16.5377 7.5438 16.5967 7.67367 16.5849C8.28756 16.5495 8.81881 16.2779 9.13757 15.7821C9.36187 15.4279 9.31465 15.2272 9.31465 14.8376C9.31465 14.5307 9.36187 14.3772 9.64521 14.3772C9.95216 14.3772 9.72785 15.0383 9.72785 15.1918C9.72785 15.6758 9.79868 15.9592 10.141 16.2779C10.9084 16.9981 11.8883 16.5377 11.9709 16.2543C11.664 16.2307 11.2272 15.8883 11.2272 15.5696C11.2272 15.1564 11.5341 14.7314 11.7466 14.389C12.1126 13.7869 11.7112 13.4446 11.6758 13.3029C12.3841 13.3029 12.9036 14.0231 12.455 14.7904C12.3959 14.8849 12.3841 14.8494 12.3605 14.9439C12.7855 14.9439 12.9862 14.7786 13.2341 14.4953C13.6001 14.0939 13.7536 13.3265 13.5293 12.7835C13.4584 12.6064 13.423 12.5828 13.3168 12.4529C13.2577 12.3703 12.5258 11.8154 13.0098 11.6501C13.3876 11.5203 13.4584 12.5237 14.4265 12.6772C14.7571 12.7244 15.2647 12.6064 15.5244 12.3821C15.796 12.1578 15.9612 11.8508 15.9966 11.4022C15.9022 11.414 15.7841 11.473 15.6897 11.4966C14.4855 11.8862 14.7334 10.2807 14.3084 9.80844C14.1432 9.61955 13.9897 9.5133 13.6473 9.5133C14.0605 8.8876 15.2883 9.21815 15.2883 10.198C15.5362 10.0327 15.6189 9.67857 15.6189 9.34802C15.6189 8.69871 15.2765 8.2737 14.9105 7.97856C14.7098 7.81328 14.4855 7.73064 14.1077 7.74245C13.9307 7.74245 13.7654 7.75425 13.6237 7.70703C13.3404 7.60078 13.2932 7.19939 13.6709 7.19939C14.0605 7.19939 14.5564 7.48272 15.1112 7.08133C15.2057 7.0105 15.2765 6.95147 15.3355 6.86883C15.6779 6.43202 15.9022 5.99521 15.6189 5.40493C15.5598 5.28687 15.4772 5.06257 15.3355 5.02715C15.3119 5.3341 14.9696 5.77091 14.6272 5.77091C14.3202 5.77091 14.0133 5.57021 13.8008 5.45215C13.423 5.23965 13.1043 4.95632 12.632 5.16882C12.5022 5.22785 12.455 5.29868 12.3605 5.35771C12.3605 5.06257 12.4786 4.82645 12.632 4.66117C12.8918 4.38964 13.3522 4.2952 13.7182 4.47228C13.7772 4.4959 13.8244 4.51951 13.8834 4.55492C13.9779 4.61395 13.9425 4.61395 14.0369 4.64937C14.0369 3.53964 12.2897 2.97297 11.5813 3.64589C11.4161 3.79936 11.1917 4.12992 10.9202 4.12992C10.7195 4.12992 10.4834 3.81117 10.932 3.53964C11.0737 3.457 11.1681 3.40978 11.2862 3.29172C11.3924 3.18547 11.4515 3.11463 11.5341 2.97297C11.7466 2.6188 11.7112 2.12296 11.5813 1.75699C11.4161 1.28476 10.9674 0.966007 10.4008 0.966007C10.448 1.1549 10.5661 1.30837 10.5661 1.5681L10.5306 1.60351Z" fill="black"/>
</svg>
