<svg width="11" height="7" viewBox="0 0 11 7" fill="none" xmlns="http://www.w3.org/2000/svg">
<path d="M7.97138 3.68425H0.435411C0.184212 3.68425 0 3.46654 0 3.1986C0 2.93065 0.200959 2.71295 0.435411 2.71295H7.97138C8.22257 2.71295 8.40679 2.93065 8.40679 3.1986C8.40679 3.46654 8.20583 3.68425 7.97138 3.68425Z" fill="black"/>
<path d="M10.0647 0.988049H0.334932C0.150719 0.988049 0 0.753596 0 0.485651C0 0.217706 0.150719 0 0.334932 0H10.0647C10.2489 0 10.3996 0.217706 10.3996 0.485651C10.3996 0.753596 10.2489 0.988049 10.0647 0.988049Z" fill="black"/>
<path d="M10.0647 6.3972H0.334932C0.150719 6.3972 0 6.16275 0 5.8948C0 5.62685 0.150719 5.40915 0.334932 5.40915H10.0647C10.2489 5.40915 10.3996 5.62685 10.3996 5.8948C10.3996 6.16275 10.2489 6.3972 10.0647 6.3972Z" fill="black"/>
</svg>
