<svg width="10" height="6" viewBox="0 0 10 6" fill="none" xmlns="http://www.w3.org/2000/svg">
<path fill-rule="evenodd" clip-rule="evenodd" d="M1.85197 0.997688C2.10273 0.997688 2.45908 0.944895 2.64386 1.05048C3.55453 1.10327 3.54133 2.50228 2.72305 2.59467C2.64386 2.73985 1.24485 2.70025 1.04688 2.64746V1.02408C1.31084 0.971292 1.6144 0.997688 1.86517 0.997688H1.85197ZM0.00422341 4.21804C0.00422341 4.46881 -0.0221729 5.00993 0.0570161 5.19471C0.162602 5.44547 0.505754 5.57745 0.809312 5.40588C1.23165 5.15511 1.04688 4.11246 1.06008 3.54494L2.28751 3.53174C2.40629 3.8221 2.81543 4.32363 3.02661 4.61399C3.27737 4.97034 3.51494 5.52466 3.99007 5.47187C4.21444 5.44547 4.42561 5.2739 4.45201 5.03633C4.4784 4.74597 4.29363 4.57439 4.16165 4.41601C3.87129 4.05966 3.59413 3.72971 3.34336 3.39976C3.59413 3.18858 4.12205 3.03021 4.29363 2.22512C4.43881 1.55201 4.18804 0.905301 3.84489 0.575346C3.36976 0.11341 3.02661 0.0738158 2.23471 0.0738158C-0.286136 0.0738158 0.0174216 -0.269337 0.0174216 2.09314C0.0174216 2.80584 0.0174216 3.51854 0.0174216 4.23124L0.00422341 4.21804Z" fill="black"/>
<path fill-rule="evenodd" clip-rule="evenodd" d="M8.35867 0.878904C8.35867 1.48602 8.35867 2.09314 8.35867 2.70025C8.35867 3.33376 8.38506 3.88809 8.01551 4.23124C7.71195 4.5216 7.11804 4.66678 6.60331 4.5084C4.72917 3.95408 6.36574 0.522553 5.45507 0.0870135C5.16471 -0.0581664 4.88755 0.0738154 4.76876 0.245392C4.62358 0.469761 4.67637 0.812913 4.67637 1.07688C4.68957 2.10633 4.5048 3.69012 4.95354 4.4952C5.82462 6.07898 9.00538 6.03939 9.37492 3.72971C9.44092 3.30737 9.38812 2.39669 9.38812 1.90836C9.38812 1.49922 9.48051 0.40377 9.26934 0.166203C9.22975 0.11341 8.35867 -0.454112 8.35867 0.865706V0.878904Z" fill="black"/>
</svg>
