<?xml version="1.0" encoding="UTF-8"?>
<!DOCTYPE svg PUBLIC "-//W3C//DTD SVG 1.1//EN" "http://www.w3.org/Graphics/SVG/1.1/DTD/svg11.dtd">
<!-- Creator: CorelDRAW (Evaluation Version) -->
<svg xmlns="http://www.w3.org/2000/svg" xml:space="preserve" width="4.233mm" height="4.2334mm" version="1.1" style="shape-rendering:geometricPrecision; text-rendering:geometricPrecision; image-rendering:optimizeQuality; fill-rule:evenodd; clip-rule:evenodd"
viewBox="0 0 28.96 28.97"
 xmlns:xlink="http://www.w3.org/1999/xlink"
 xmlns:xodm="http://www.corel.com/coreldraw/odm/2003">
 <defs>
  <style type="text/css">
   <![CDATA[
    .fil0 {fill:#00CCFF;fill-rule:nonzero}
   ]]>
  </style>
 </defs>
 <g id="Слой_x0020_1">
  <metadata id="CorelCorpID_0Corel-Layer"/>
  <g id="_105553223836928">
   <path class="fil0" d="M17.55 28.97c-0.2,0 -0.38,-0.13 -0.45,-0.32l-6.02 -16.96c-0.06,-0.17 -0.02,-0.36 0.11,-0.49 0.13,-0.13 0.32,-0.17 0.49,-0.11l16.97 6.02c0.2,0.07 0.32,0.26 0.31,0.47 -0.01,0.21 -0.15,0.39 -0.36,0.44l-3.83 0.94c-0.26,0.06 -0.51,-0.09 -0.57,-0.35 -0.07,-0.25 0.09,-0.51 0.34,-0.57l2.3 -0.57 -14.53 -5.16 5.16 14.53 1.12 -4.53c0.02,-0.08 0.06,-0.16 0.13,-0.22 0.09,-0.09 0.21,-0.14 0.33,-0.14l0 0c0.13,0 0.25,0.05 0.34,0.14l5.53 5.53 2.71 -2.71 -3.77 -3.77c-0.18,-0.19 -0.18,-0.49 0,-0.67 0.19,-0.18 0.49,-0.18 0.67,0l4.11 4.11c0.09,0.09 0.14,0.21 0.14,0.33 0,0.13 -0.05,0.25 -0.14,0.34l-3.38 3.38c-0.18,0.19 -0.48,0.19 -0.66,0l-5.28 -5.27 -1.29 5.25c-0.05,0.21 -0.23,0.35 -0.44,0.36 -0.01,0 -0.02,0 -0.02,0z"/>
   <path class="fil0" d="M11.53 23.05c-6.36,0 -11.53,-5.17 -11.53,-11.52 0,-6.36 5.17,-11.53 11.53,-11.53 6.36,0 11.53,5.17 11.53,11.53 0,0.26 -0.21,0.47 -0.47,0.47 -0.26,0 -0.47,-0.21 -0.47,-0.47 0,-5.83 -4.75,-10.58 -10.58,-10.58 -5.83,0 -10.58,4.75 -10.58,10.58 0,5.83 4.74,10.58 10.58,10.58 0.26,0 0.47,0.21 0.47,0.48 0,0.26 -0.21,0.47 -0.47,0.47z"/>
   <path class="fil0" d="M10.05 17.65c-0.04,0 -0.08,-0.01 -0.12,-0.02 -2.77,-0.72 -4.71,-3.23 -4.71,-6.1 0,-3.48 2.83,-6.31 6.31,-6.31 2.86,0 5.37,1.93 6.1,4.7 0.07,0.25 -0.08,0.51 -0.34,0.58 -0.25,0.07 -0.51,-0.09 -0.58,-0.34 -0.62,-2.35 -2.75,-3.99 -5.18,-3.99 -2.96,0 -5.36,2.4 -5.36,5.36 0,2.44 1.65,4.57 4,5.18 0.25,0.07 0.41,0.32 0.34,0.58 -0.05,0.21 -0.25,0.35 -0.46,0.35z"/>
  </g>
 </g>
</svg>
