<?xml version="1.0" encoding="UTF-8"?>
<!DOCTYPE svg PUBLIC "-//W3C//DTD SVG 1.1//EN" "http://www.w3.org/Graphics/SVG/1.1/DTD/svg11.dtd">
<!-- Creator: CorelDRAW (Evaluation Version) -->
<svg xmlns="http://www.w3.org/2000/svg" xml:space="preserve" width="4.2343mm" height="4.2333mm" version="1.1" style="shape-rendering:geometricPrecision; text-rendering:geometricPrecision; image-rendering:optimizeQuality; fill-rule:evenodd; clip-rule:evenodd"
viewBox="0 0 45.49 45.47"
 xmlns:xlink="http://www.w3.org/1999/xlink"
 xmlns:xodm="http://www.corel.com/coreldraw/odm/2003">
 <defs>
  <style type="text/css">
   <![CDATA[
    .fil0 {fill:#00CCFF;fill-rule:nonzero}
   ]]>
  </style>
 </defs>
 <g id="Слой_x0020_1">
  <metadata id="CorelCorpID_0Corel-Layer"/>
  <path class="fil0" d="M41.15 45.47c-1.1,0 -2.13,-0.43 -2.91,-1.21l-9.2 -9.18c-7.45,4.66 -17.22,3.57 -23.48,-2.69 -3.58,-3.57 -5.56,-8.36 -5.56,-13.43 0,-5.07 1.98,-9.83 5.56,-13.41 3.58,-3.59 8.35,-5.56 13.42,-5.56 5.07,0 9.84,1.97 13.43,5.56 6.41,6.41 7.39,16.51 2.33,24.02 -0.24,0.35 -0.72,0.43 -1.08,0.2 -0.35,-0.25 -0.45,-0.72 -0.21,-1.09 4.65,-6.88 3.75,-16.16 -2.14,-22.05 -3.29,-3.28 -7.67,-5.11 -12.33,-5.11 -4.66,0 -9.03,1.83 -12.32,5.11 -3.3,3.29 -5.11,7.68 -5.11,12.32 0,4.66 1.81,9.05 5.11,12.34 5.88,5.89 15.16,6.8 22.06,2.13 0.31,-0.21 0.72,-0.16 0.98,0.1l9.64 9.63c0.48,0.49 1.13,0.76 1.82,0.76 0.69,0 1.33,-0.27 1.82,-0.76l0.21 -0.21c1,-1.01 1,-2.65 0,-3.63l-6.87 -6.88c-0.31,-0.31 -0.31,-0.78 0,-1.09 0.3,-0.31 0.79,-0.31 1.09,0l6.87 6.86c0.78,0.78 1.21,1.83 1.21,2.92 0,1.11 -0.43,2.14 -1.21,2.92l-0.21 0.21c-0.78,0.78 -1.81,1.21 -2.92,1.21zm-22.86 -20.15c-0.27,0 -0.53,-0.11 -0.72,-0.31l-5.77 -6.16c-0.37,-0.39 -0.35,-1 0.04,-1.37 0.39,-0.37 1,-0.35 1.35,0.04l5.05 5.38 8.6 -9.98c0.35,-0.41 0.96,-0.45 1.35,-0.1 0.41,0.35 0.45,0.95 0.1,1.36l-9.28 10.8c-0.18,0.21 -0.45,0.33 -0.72,0.33 0,0 -0.02,0 -0.02,0z"/>
 </g>
</svg>
