<?xml version="1.0" encoding="UTF-8"?>
<!DOCTYPE svg PUBLIC "-//W3C//DTD SVG 1.1//EN" "http://www.w3.org/Graphics/SVG/1.1/DTD/svg11.dtd">
<!-- Creator: CorelDRAW (Evaluation Version) -->
<svg xmlns="http://www.w3.org/2000/svg" xml:space="preserve" width="6.7667mm" height="2.1168mm" version="1.1" style="shape-rendering:geometricPrecision; text-rendering:geometricPrecision; image-rendering:optimizeQuality; fill-rule:evenodd; clip-rule:evenodd"
viewBox="0 0 43.94 13.75"
 xmlns:xlink="http://www.w3.org/1999/xlink"
 xmlns:xodm="http://www.corel.com/coreldraw/odm/2003">
 <defs>
  <style type="text/css">
   <![CDATA[
    .fil0 {fill:white}
   ]]>
  </style>
 </defs>
 <g id="Слой_x0020_1">
  <metadata id="CorelCorpID_0Corel-Layer"/>
  <g id="_105553225263808">
   <path class="fil0" d="M0.75 0.22c-0.17,-0.06 -0.12,-0 -0.18,-0.12l-0.26 -0.04c-0.16,-0.02 -0.19,-0.03 -0.31,-0.06l0 11.77c0.23,0 4.98,1.2 5.63,1.35 0.39,0.09 0.45,0.19 0.83,0.19 0,-3.18 0,-6.35 0,-9.53 0,-0.47 0.05,-0.73 -0.12,-1.07 -0.18,-0.36 -0.25,-0.42 -0.51,-0.68 -0.74,-0.75 -2.32,-1.06 -3.42,-1.36l-1.66 -0.45z"/>
   <path class="fil0" d="M7.51 0.88c1.56,0.77 1.23,1.52 1.23,3.51l0 7.12c0.54,-0.01 1.37,-0.56 1.72,-0.91 0.44,-0.44 0.81,-1.12 0.82,-1.81 0.03,-1.18 -0.22,-2.05 -1.23,-2.72 -0.2,-0.13 -0.62,-0.37 -0.92,-0.39 0.08,-0.11 0.19,-0.15 0.31,-0.22 0.82,-0.48 1.3,-1.4 1.32,-2.37 0.01,-0.25 -0.08,-0.72 -0.14,-0.92 -0.07,-0.21 -0.23,-0.54 -0.35,-0.71 -0.95,-1.31 -2.65,-1.44 -4.15,-1.45l-0.73 0 -4.08 0.01c-0.12,0.03 -0.02,-0.02 -0.1,0.05l0.26 0.04c0.05,-0.07 -0.07,-0.05 0.09,-0.05 0.04,0.07 0.01,0.07 0.1,0.08 0.19,0.03 0.11,-0.04 0.25,-0.02 0.27,0.03 -0.11,0.05 0.21,0.05l0.43 0.04c0.13,0 0.11,-0 0.24,0.01 0.22,0.02 0.33,0.04 0.55,0.07 0.94,0.13 3.3,0.19 4.14,0.6z"/>
   <path class="fil0" d="M12.19 2.72c0.51,0.77 3.27,4.26 3.34,4.52l-0.42 0.55c-0.16,0.21 -0.28,0.36 -0.44,0.57 -0.2,0.26 -2.52,3.23 -2.57,3.41l2.8 -0.01c0.13,-0.04 1.64,-2.11 1.85,-2.41 0.07,-0.11 0.15,-0.18 0.18,-0.3 0.18,0.05 0.34,0.38 0.54,0.65 0.18,0.24 0.32,0.45 0.5,0.69l0.98 1.39 2.99 0c-0.13,-0.25 -0.65,-0.89 -0.86,-1.16 -0.3,-0.4 -0.57,-0.75 -0.87,-1.15l-1.74 -2.3c0.46,-0.68 3.17,-4.12 3.34,-4.44l-2.81 0 -0.95 1.29c-0.11,0.15 -0.9,1.15 -0.94,1.3 -0.19,-0.05 -0.39,-0.44 -0.5,-0.6l-1.2 -1.65c-0.09,-0.14 -0.15,-0.2 -0.23,-0.34l-2.99 0z"/>
   <path class="fil0" d="M30.19 3.43c-1.96,-1.28 -4.99,-1.11 -6.61,0.49 -0.72,0.71 -1.37,1.82 -1.37,3.24 0,2.18 1.06,3.53 2.78,4.33 1.68,0.79 4.4,0.49 5.84,-0.94 0.12,-0.12 0.16,-0.17 0.26,-0.31 1.58,-1.88 1.36,-4.76 -0.26,-6.31l-0.64 -0.51zm-4.7 2.05c1.03,-1.16 3.25,-0.94 3.82,0.73 0.32,0.94 0.21,2.1 -0.41,2.81 -0.34,0.39 -0.96,0.74 -1.68,0.74 -2.45,0 -2.87,-2.98 -1.72,-4.27z"/>
   <path class="fil0" d="M34.76 2.72l-0.21 4.27c-0.1,0.77 -0.24,2.02 -0.9,2.44 -0.27,0.17 -0.53,0.18 -0.96,0.18l0 4.13 2.46 0 0 -1.98 6.32 0 0 1.98 2.46 0 0 -4.13 -1.27 0 0 -6.9 -7.91 0zm2.33 2.15l2.94 0 0 4.74 -3.78 0c0.5,-0.74 0.57,-1.12 0.69,-2.08l0.1 -1.3c0.01,-0.22 -0.02,-0.48 0,-0.7 0.02,-0.22 0.04,-0.38 0.04,-0.66z"/>
  </g>
 </g>
</svg>
