<?xml version="1.0" encoding="UTF-8"?>
<!DOCTYPE svg PUBLIC "-//W3C//DTD SVG 1.1//EN" "http://www.w3.org/Graphics/SVG/1.1/DTD/svg11.dtd">
<!-- Creator: CorelDRAW (Evaluation Version) -->
<svg xmlns="http://www.w3.org/2000/svg" xml:space="preserve" width="4.2263mm" height="4.2334mm" version="1.1" style="shape-rendering:geometricPrecision; text-rendering:geometricPrecision; image-rendering:optimizeQuality; fill-rule:evenodd; clip-rule:evenodd"
viewBox="0 0 13.53 13.55"
 xmlns:xlink="http://www.w3.org/1999/xlink"
 xmlns:xodm="http://www.corel.com/coreldraw/odm/2003">
 <defs>
  <style type="text/css">
   <![CDATA[
    .fil0 {fill:white}
   ]]>
  </style>
 </defs>
 <g id="Слой_x0020_1">
  <metadata id="CorelCorpID_0Corel-Layer"/>
  <g id="_105553223370592">
   <path class="fil0" d="M9.53 4.67c0.12,-0.12 0.32,-0.28 0.4,-0.41 -0.03,-0.11 -0.48,-0.52 -0.59,-0.6 -0.05,-0.04 -0.09,-0.07 -0.14,-0.11 -0.29,-0.22 -0.59,-0.38 -0.93,-0.52 -0.14,-0.05 -0.6,-0.21 -0.76,-0.21 0.11,0.16 0.35,0.35 0.5,0.49 0.15,0.15 0.76,0.74 0.83,0.84l-1.17 1.17c0.24,0.15 0.43,0.36 0.57,0.61 0.03,-0.03 0.06,-0.06 0.08,-0.08 0.22,-0.22 0.95,-0.98 1.14,-1.13 0.03,-0.02 0.04,-0.04 0.07,-0.07zm-2.33 0.45c-0,-0.74 -0.01,-1.47 0,-2.21 0,-0.15 0.02,-0.15 -0.27,-0.15 -0.6,0 -0.94,0.05 -1.49,0.22 -0.25,0.08 -0.52,0.21 -0.74,0.35 -0.07,0.04 -0.17,0.08 -0.21,0.15l1.86 0 0 1.64c0.13,-0.03 0.26,-0.05 0.4,-0.05 0.15,0 0.3,0.02 0.44,0.06zm-1.33 0.19l-1.65 -1.64c-0.05,0.02 -0.09,0.06 -0.13,0.1l-0.33 0.33c-0,0 -0.01,0.01 -0.01,0.01l-0.13 0.15c-0.02,0.02 -0.04,0.05 -0.05,0.07 -0.02,0.03 -0.03,0.04 -0.05,0.07 -0.34,0.47 -0.53,0.92 -0.69,1.47 -0.01,0.04 -0.04,0.15 -0.04,0.2l1.32 -1.32c0.12,0.08 0.77,0.74 1.18,1.15 0.14,-0.25 0.34,-0.45 0.58,-0.6zm-0.77 1.09l-2.37 0c0,0.1 -0.01,0.15 -0.01,0.25 0,0.31 0.01,0.64 0.07,0.94 0.1,0.51 0.29,0.99 0.57,1.42 0.03,0.04 0.05,0.09 0.09,0.1l0 -1.88 1.69 0c-0.04,-0.15 -0.07,-0.31 -0.07,-0.48 0,-0.12 0.01,-0.24 0.04,-0.35zm-0.93 2.43c-0.14,0.14 -0.44,0.39 -0.54,0.53 0.03,0.11 0.37,0.4 0.46,0.49 0.21,0.21 0.59,0.45 0.86,0.58 0.28,0.14 0.58,0.25 0.89,0.32 0.05,0.01 0.14,0.04 0.2,0.04 -0.11,-0.16 -1.21,-1.15 -1.33,-1.33l1.23 -1.23c-0.25,-0.14 -0.46,-0.33 -0.61,-0.57l-1.16 1.16zm2.18 -0.43c0.01,0.77 0.01,1.55 -0,2.32 -0,0.1 -0.03,0.13 0.07,0.14 0.78,0.06 1.52,-0.09 2.21,-0.43l0.34 -0.2c0.03,-0.02 0.04,-0.02 0.06,-0.04 0.01,-0.01 0.01,-0.01 0.02,-0.02 0.02,-0.01 0.02,-0.01 0.03,-0.02 -0.07,-0.02 -1.66,0 -1.88,0l0 -1.77c-0.14,0.04 -0.29,0.06 -0.45,0.06 -0.14,0 -0.27,-0.02 -0.4,-0.05zm2.02 -1.16l2.45 -0c0,-0.1 0.01,-0.15 0.01,-0.25 0,-0.31 -0.01,-0.65 -0.07,-0.94 -0.08,-0.38 -0.2,-0.73 -0.37,-1.08l-0.13 -0.23c-0.04,-0.06 -0.09,-0.19 -0.15,-0.21l0 1.88 -1.7 0c0.02,0.11 0.04,0.23 0.04,0.35 0,0.17 -0.02,0.33 -0.07,0.48zm-0.79 0.99l1.74 1.73c0.05,-0.02 0.09,-0.06 0.13,-0.1l0.47 -0.49c0.02,-0.02 0.04,-0.05 0.05,-0.07 0.02,-0.03 0.03,-0.04 0.05,-0.07 0.13,-0.18 0.26,-0.39 0.36,-0.59 0.12,-0.24 0.36,-0.82 0.36,-1.09 -0.09,0.06 -0.99,0.98 -1.16,1.16 -0.05,0.05 -0.12,0.14 -0.18,0.16l-1.23 -1.23c-0.15,0.24 -0.36,0.44 -0.6,0.58zm-0.43 -2.29c-0.11,-0.1 -0.21,-0.21 -0.32,-0.31l-0.09 -0.08 -0.35 0.35c-0.01,0.01 -0.01,0 -0.01,0.01 0.01,0.02 0.21,0.15 0.22,0.15 0.01,0 0.01,-0.01 0.02,-0.01l0.06 -0.05c0.03,-0.03 0.05,-0.06 0.08,-0.06 0,0.01 0,0.01 0.01,0.02l0.36 0.36c0.03,0.03 0.1,0.1 0.13,0.12 0.01,-0.01 0.01,-0.01 0.02,-0.02l0.1 -0.14c0.02,-0.02 0.03,-0.03 0.04,-0.06 -0.02,-0.02 -0.15,-0.15 -0.17,-0.17l-0.1 -0.1zm0.37 -0.2l-0.25 0.13c-0.02,0.01 -0.06,0.04 -0.08,0.04 0.01,0.03 0.02,0.03 0.04,0.05 0.01,0.01 0.01,0.01 0.02,0.02 0.02,0.02 0.04,0.05 0.07,0.06 0.08,-0.04 0.18,-0.1 0.26,-0.12 0.02,-0.01 0.03,-0.01 0.04,-0.01 -0,0.06 -0.11,0.25 -0.16,0.33 -0.01,0.01 -0.01,0.01 -0.01,0.02l-0.07 0.1c-0.05,0.07 -0.1,0.14 -0.15,0.2 -0.05,0.05 -0.03,0.05 -0.01,0.07 0.02,0.02 0.07,0.08 0.09,0.1 0.02,-0.01 0.01,-0 0.03,-0.02l0.18 -0.24c0.12,-0.16 0.3,-0.48 0.35,-0.66 0.01,-0.04 0.03,-0.08 0.03,-0.13 0,-0.02 0,-0.02 0,-0.05 -0.09,0 -0.29,0.07 -0.38,0.11zm-1.6 0.18c0.09,0.04 0.2,0.09 0.28,0.14 0.11,0.07 0.18,0.12 0.29,0.21 0.09,0.08 0.08,0.07 0.12,0.03 0.12,-0.12 0.16,-0.05 -0.08,-0.23l-0.06 -0.05c-0.14,-0.1 -0.4,-0.25 -0.55,-0.3l-0.16 -0.06c-0.04,-0.01 -0.09,-0.03 -0.13,-0.03 -0.02,-0 -0.04,-0.01 -0.04,0.01 0,0.04 0.02,0.12 0.03,0.15 0.02,0.06 0.03,0.1 0.07,0.18 0.01,0.02 0.01,0.03 0.02,0.05l0.08 0.16c0.01,0.02 0.01,0.02 0.02,0.04 0.01,0.03 0.05,0.1 0.07,0.12 0.02,-0.01 0.12,-0.11 0.13,-0.13 -0.02,-0.02 -0.03,-0.04 -0.04,-0.07 -0.03,-0.05 -0.1,-0.18 -0.1,-0.23 0.02,0 0.04,0.01 0.05,0.01zm0.18 0.27l-0.5 0.49c-0.02,0.02 -0.07,0.06 -0.1,0.1l0.37 0.36c0.01,-0.01 0.15,-0.21 0.15,-0.22 0,-0.01 -0.12,-0.12 -0.13,-0.14 0.01,-0.01 0.01,-0.01 0.01,-0.02 0,0 0.01,-0.01 0.01,-0.01l0.02 -0.02c0,-0 0,-0 0,-0l0.02 -0.02c0.09,-0.08 0.32,-0.32 0.38,-0.38l0.07 -0.06c-0.01,-0.02 -0.04,-0.03 -0.05,-0.04l-0.11 -0.08c-0.01,-0.01 -0.01,-0.01 -0.03,-0.02 -0.04,-0.03 -0.02,-0.04 -0.12,0.06zm0.2 1.43c-0.01,-0.02 -0.12,-0.13 -0.13,-0.13 -0.01,0 -0.12,0.06 -0.14,0.07 -0.01,0.01 -0.02,0.01 -0.04,0.02 -0.01,0.01 -0.02,0.01 -0.04,0.02 -0.02,0.01 -0.02,0.01 -0.04,0.02 -0.02,0.01 -0.03,0.01 -0.04,0.01 0,-0.03 0.04,-0.11 0.06,-0.15 0.03,-0.08 0.14,-0.24 0.19,-0.3 0.01,-0.02 0.02,-0.03 0.03,-0.04l0.13 -0.16c0.01,-0.01 0.02,-0.03 0.03,-0.04l-0.13 -0.13c-0,0 -0,0 -0,0l-0.09 0.1c-0.01,0.01 -0.01,0.01 -0.02,0.03l-0.25 0.38c-0.08,0.15 -0.22,0.41 -0.22,0.58 0.05,0 0.1,-0.02 0.15,-0.03 0.07,-0.02 0.25,-0.09 0.32,-0.12l0.24 -0.13zm1.26 -0.81l-0.34 0.34c-0.01,0.01 -0.12,0.12 -0.13,0.12 0,0.02 0.01,0.01 0.02,0.02l0.17 0.12c0.04,0.03 0.03,0.02 0.1,-0.04l0.36 -0.36c0.02,-0.02 0.03,-0.03 0.04,-0.04l0.13 -0.13c0.03,-0.03 0.05,-0.06 0.09,-0.08l-0.16 -0.16c-0.01,-0.01 -0.01,-0.01 -0.01,-0.01l-0.15 -0.15c-0.01,-0.01 -0.04,-0.03 -0.05,-0.05l-0.16 0.22c0.02,0.02 0.14,0.13 0.14,0.14 0,0.02 -0.02,0.02 -0.03,0.04 -0,0 -0,0 -0,0 -0,0 -0,0 -0,0zm0.05 0.4l-0.13 0.12c0.05,0.1 0.06,0.1 0.11,0.22 0.01,0.02 0.02,0.05 0.03,0.08 -0.05,-0 -0.16,-0.06 -0.2,-0.08 -0.12,-0.06 -0.27,-0.17 -0.37,-0.25 -0.02,-0.02 -0.11,-0.09 -0.12,-0.09l-0.08 0.07c-0.01,0.01 -0.04,0.03 -0.05,0.05 0.01,0.02 0.15,0.12 0.17,0.14 0.09,0.06 0.16,0.11 0.25,0.17l0.14 0.08c0.01,0.01 0.02,0.01 0.03,0.02 0.01,0 0.01,0 0.02,0.01 0.02,0.01 0,0 0.02,0.01l0.22 0.1c0.02,0.01 0.05,0.02 0.08,0.02 0.06,0.02 0.12,0.04 0.19,0.04 0,-0.05 -0.03,-0.15 -0.05,-0.2 -0.04,-0.11 -0.1,-0.25 -0.15,-0.34 -0.02,-0.03 -0.07,-0.14 -0.1,-0.16zm-1.09 -0.5l0.12 -0.12c0.01,-0.01 0.01,-0.01 0.02,-0.02 0.01,-0.01 0.01,-0 0.02,-0.01 0.02,-0.02 0.04,-0.04 0.06,-0.06l0.1 -0.09c0.01,-0.01 0.01,-0.01 0.02,-0.01 0.04,-0.03 0.11,-0.1 0.16,-0.13 -0.01,-0.01 -0.13,-0.13 -0.13,-0.13 -0.02,0 -0.05,0.04 -0.07,0.05l-0.26 0.23c-0.05,0.05 -0.16,0.14 -0.19,0.18 0,0 0,0 0,0l0.06 0.06c0.02,0.03 0.05,0.05 0.06,0.07 0.02,-0 0.02,-0.01 0.03,-0.03zm-0.29 -0.2c-0.02,0.01 -0.13,0.12 -0.14,0.13l0.05 0.07c0.02,0.02 0.04,0.04 0.06,0.07l0.2 0.22c0.04,0.04 0.11,0.12 0.16,0.15l0.1 -0.09c0.02,-0.02 0.02,-0.01 0.03,-0.03 -0.01,-0.01 -0.01,-0.02 -0.03,-0.03l-0.11 -0.1c-0.01,-0.01 -0.01,-0.01 -0.02,-0.02 -0.01,-0.01 -0.01,-0.01 -0.02,-0.02l-0.01 -0.01c-0.06,-0.06 -0.13,-0.15 -0.19,-0.2l-0.1 -0.12c-0.01,-0.01 -0.01,-0 -0.01,-0.02zm0.51 1.11c-0.02,-0.02 -0.15,-0.15 -0.19,-0.19l-0.08 -0.08c-0.01,-0.01 -0,-0 -0.01,-0.01 -0.01,-0.01 -0,-0 -0.01,-0.01 -0.01,-0.01 -0,-0 -0.01,-0.01l-0.06 -0.06c-0.01,-0.01 -0,-0 -0.01,-0.01 -0,-0 -0,-0 -0,-0 -0,-0 -0,-0 -0,-0l-0.05 -0.05c-0.01,-0.01 -0.01,-0.01 -0.02,-0.02l-0.05 -0.05c-0.01,-0.02 -0.02,-0.02 -0.04,-0.03 -0.01,0.02 -0,0.01 -0.02,0.03 -0.01,0.01 -0,0 -0.01,0.01l-0.13 0.18c0.02,0.04 0.07,0.07 0.1,0.1l0.57 0.56c0.02,0 0.17,-0.16 0.19,-0.18l0.12 -0.12c0.02,-0.02 0.04,-0.03 0.06,-0.06 -0.01,-0.01 -0.22,-0.15 -0.22,-0.15 -0.01,0 -0.09,0.07 -0.09,0.08 -0.01,0.01 -0,0 -0.01,0.01 -0.01,0.01 -0,0 -0.01,0.01 -0.02,0.01 -0.02,0.03 -0.04,0.04zm0.53 -0.57c0.01,-0.01 0.13,-0.12 0.13,-0.13 0,-0.03 -0.07,-0.1 -0.09,-0.12 -0,-0 -0,-0 -0,-0l-0.19 -0.21c-0.01,-0.01 -0.02,-0.02 -0.03,-0.03l-0.06 -0.07c-0.1,-0.11 -0.1,-0.1 -0.13,-0.07 -0.01,0.01 -0.1,0.09 -0.1,0.09 0,0.02 0.09,0.1 0.11,0.12 0.01,0 0,0 0.01,0.01l0.06 0.06c0,0 0,0 0,0l0.12 0.13c0.01,0.01 0.02,0.02 0.03,0.03 0.01,0.01 0.02,0.02 0.03,0.04 0.01,0.01 0.01,0.02 0.03,0.03l0.09 0.1zm-0.33 -0.17l-0.46 0.42c0.01,0.01 0.12,0.13 0.13,0.13 0.02,0 0.32,-0.27 0.37,-0.31 0.04,-0.04 0.14,-0.13 0.15,-0.16l-0.04 -0.05c-0.01,-0.01 -0.01,-0.01 -0.02,-0.02 -0.02,-0.02 -0.05,-0.05 -0.06,-0.07 -0.02,0 -0.04,0.03 -0.07,0.06z"/>
   <path class="fil0" d="M6.65 2.29c0.83,0 1.36,0.13 1.99,0.42 1.28,0.59 2.14,1.68 2.49,3.07 0.08,0.31 0.1,0.67 0.12,0.99 0.01,0.14 -0.09,0.86 -0.12,0.99 -0.15,0.75 -0.63,1.62 -1.17,2.16 -0.36,0.35 -0.85,0.72 -1.3,0.92 -1.22,0.54 -2.54,0.57 -3.76,0.01 -0.26,-0.12 -0.47,-0.23 -0.71,-0.4 -0.91,-0.65 -1.52,-1.56 -1.79,-2.65 -0.06,-0.24 -0.12,-0.73 -0.13,-0.98l0.04 -0.52c0.03,-0.19 0.05,-0.32 0.08,-0.48 0.06,-0.3 0.16,-0.58 0.27,-0.84 0.18,-0.42 0.37,-0.7 0.63,-1.03 0.21,-0.27 0.43,-0.47 0.7,-0.69l0.49 -0.34c0.13,-0.07 0.23,-0.13 0.36,-0.19 0.46,-0.21 1.14,-0.42 1.8,-0.42zm2.27 -1.78c0,0.98 -1.71,0.37 -1.71,1.48 -0.07,-0.02 -0.07,-0.05 -0.11,-0.1 -0.03,-0.05 -0.06,-0.08 -0.09,-0.14 -0.23,-0.54 0.16,-1.15 0.76,-1.15 -0.05,-0.17 -0.43,-0.28 -0.58,-0.28 -0.45,0 -0.83,0.13 -1.14,0.44 -0.19,0.19 -0.31,0.42 -0.36,0.71 -0.02,0.15 0.09,0.73 -0.22,0.73 -0.36,0 -0.14,-0.53 -0.14,-0.69 0,-0.41 -0.05,-0.69 -0.35,-0.94 -0.77,-0.65 -1.5,-0.17 -1.55,0.02 0.14,0.01 0.31,0.12 0.41,0.19 0.63,0.47 -0.36,1.32 -0.36,1.8 0,0.22 0.12,0.34 0.21,0.51 -0.62,0 -0.95,-0.58 -0.73,-1.13 0.05,-0.12 0.13,-0.17 0.15,-0.29 -1.01,0.02 -1.47,1.65 -0.71,2.24 0.5,0.38 0.21,0.74 -0.04,0.6 -0.24,-0.13 -0.5,-1.13 -1.64,-0.75 -0.41,0.14 -0.71,0.48 -0.71,1.02 0.18,-0.05 0.59,-0.29 0.88,-0.02 0.21,0.2 0.27,0.54 0.35,0.81 0.12,0.43 0.23,0.78 0.77,0.78 -0.35,0.52 -1.39,0.25 -1.39,-0.56 -0.35,0.09 -0.47,1.23 0.29,1.82 0.16,0.12 0.34,0.24 0.61,0.24 0.22,-0 0.7,-0.07 0.7,0.25 0,0.35 -0.64,0.08 -0.86,0.11 -0.46,0.06 -0.68,0.2 -0.92,0.56 -0.2,0.31 -0.23,0.67 -0.09,1.01l0.15 0.26c0.05,0.06 0.01,0.05 0.09,0.07 0.06,-0.26 0.29,-0.63 0.6,-0.63 0.51,0 0.94,0.56 1.32,0.56 0.32,0 0.36,-0.05 0.6,-0.21 0,0.35 -0.18,0.64 -0.49,0.76 -0.42,0.16 -0.65,0 -0.92,-0.18 0,0.47 0.36,0.82 0.74,0.98 0.42,0.17 1.07,0.18 1.4,-0.16 0.13,-0.13 0.3,-0.38 0.53,-0.38 0.18,0 0.37,0.28 -0.02,0.51 -0.34,0.2 -0.62,0.52 -0.62,0.97 0,0.69 0.4,1.2 1.11,1.2 -0.67,-1.27 0.82,-1.04 1.31,-1.44 0.15,-0.12 0.24,-0.3 0.24,-0.57 0.48,0.32 0.35,1.34 -0.56,1.41 0.06,0.09 0.16,0.14 0.27,0.19 0.08,0.04 0.29,0.09 0.4,0.08 0.52,-0.03 0.97,-0.26 1.24,-0.68 0.19,-0.3 0.15,-0.47 0.15,-0.8 0,-0.26 0.04,-0.39 0.28,-0.39 0.26,0 0.07,0.56 0.07,0.69 0,0.41 0.06,0.65 0.35,0.92 0.65,0.61 1.48,0.22 1.55,-0.02 -0.26,-0.02 -0.63,-0.31 -0.63,-0.58 0,-0.35 0.26,-0.71 0.44,-1 0.31,-0.51 -0.03,-0.8 -0.06,-0.92 0.6,0 1.04,0.61 0.66,1.26 -0.05,0.08 -0.06,0.05 -0.08,0.13 0.36,0 0.53,-0.14 0.74,-0.38 0.31,-0.34 0.44,-0.99 0.25,-1.45 -0.06,-0.15 -0.09,-0.17 -0.18,-0.28 -0.05,-0.07 -0.67,-0.54 -0.26,-0.68 0.32,-0.11 0.38,0.74 1.2,0.87 0.28,0.04 0.71,-0.06 0.93,-0.25 0.23,-0.19 0.37,-0.45 0.4,-0.83 -0.08,0.01 -0.18,0.06 -0.26,0.08 -1.02,0.33 -0.81,-1.03 -1.17,-1.43 -0.14,-0.16 -0.27,-0.25 -0.56,-0.25 0.35,-0.53 1.39,-0.25 1.39,0.58 0.21,-0.14 0.28,-0.44 0.28,-0.72 0,-0.55 -0.29,-0.91 -0.6,-1.16 -0.17,-0.14 -0.36,-0.21 -0.68,-0.2 -0.15,0 -0.29,0.01 -0.41,-0.03 -0.24,-0.09 -0.28,-0.43 0.04,-0.43 0.33,0 0.75,0.24 1.22,-0.1 0.08,-0.06 0.14,-0.11 0.19,-0.18 0.29,-0.37 0.48,-0.74 0.24,-1.24 -0.05,-0.1 -0.12,-0.29 -0.24,-0.32 -0.02,0.26 -0.31,0.63 -0.6,0.63 -0.26,0 -0.52,-0.17 -0.7,-0.27 -0.32,-0.18 -0.59,-0.42 -0.99,-0.24 -0.11,0.05 -0.15,0.11 -0.23,0.16 0,-0.25 0.1,-0.45 0.23,-0.59 0.22,-0.23 0.61,-0.31 0.92,-0.16 0.05,0.02 0.09,0.04 0.14,0.07 0.08,0.05 0.05,0.05 0.13,0.08 0,-0.94 -1.48,-1.42 -2.08,-0.85 -0.14,0.13 -0.33,0.41 -0.56,0.41 -0.17,0 -0.37,-0.27 0.01,-0.5 0.12,-0.07 0.2,-0.11 0.3,-0.21 0.09,-0.09 0.14,-0.15 0.21,-0.27 0.18,-0.3 0.15,-0.72 0.04,-1.03 -0.14,-0.4 -0.52,-0.67 -1,-0.67 0.04,0.16 0.14,0.29 0.14,0.51z"/>
  </g>
 </g>
</svg>
